<?xml version="1.0" encoding="UTF-8" standalone="no"?>
<!-- Created with Inkscape (http://www.inkscape.org/) -->

<svg
   xmlns:dc="http://purl.org/dc/elements/1.1/"
   xmlns:cc="http://creativecommons.org/ns#"
   xmlns:rdf="http://www.w3.org/1999/02/22-rdf-syntax-ns#"
   xmlns:svg="http://www.w3.org/2000/svg"
   xmlns="http://www.w3.org/2000/svg"
   xmlns:sodipodi="http://sodipodi.sourceforge.net/DTD/sodipodi-0.dtd"
   xmlns:inkscape="http://www.inkscape.org/namespaces/inkscape"
   width="300"
   height="214"
   viewBox="0 0 79.375026 56.620847"
   version="1.1"
   id="svg6298"
   inkscape:version="0.92.4 (5da689c313, 2019-01-14)"
   sodipodi:docname="creative.svg">
  <defs
     id="defs6292" />
  <sodipodi:namedview
     id="base"
     pagecolor="#ffffff"
     bordercolor="#666666"
     borderopacity="1.0"
     inkscape:pageopacity="0.0"
     inkscape:pageshadow="2"
     inkscape:zoom="0.49497475"
     inkscape:cx="172.07412"
     inkscape:cy="136.12885"
     inkscape:document-units="mm"
     inkscape:current-layer="layer1"
     showgrid="false"
     units="px"
     inkscape:window-width="957"
     inkscape:window-height="492"
     inkscape:window-x="954"
     inkscape:window-y="524"
     inkscape:window-maximized="0" />
  <metadata
     id="metadata6295">
    <rdf:RDF>
      <cc:Work
         rdf:about="">
        <dc:format>image/svg+xml</dc:format>
        <dc:type
           rdf:resource="http://purl.org/dc/dcmitype/StillImage" />
        <dc:title></dc:title>
      </cc:Work>
    </rdf:RDF>
  </metadata>
  <g
     inkscape:label="Layer 1"
     inkscape:groupmode="layer"
     id="layer1"
     transform="translate(0,-240.37901)">
    <path
       style="fill:#000000;stroke-width:0.06159253"
       d="m 12.219251,294.74997 -0.431147,-0.0802 -0.413041,-0.15192 -0.413047,-0.15199 -0.449246,-0.26608 -0.449253,-0.26608 -0.5595839,-0.5586 -0.5595784,-0.55867 -0.2886799,-0.58511 -0.2886799,-0.58517 -0.091032,-0.4827 -0.09102,-0.48283 v -0.38373 -0.38379 l 0.097581,-0.32857 0.097582,-0.32858 0.1406795,-0.22152 0.1406796,-0.22152 0.3467072,-0.32674 0.3467013,-0.32668 0.3300397,-0.15107 0.3300458,-0.15106 0.363038,-0.0675 0.363038,-0.0674 0.338211,0.0392 0.338212,0.0398 0.308505,0.14403 0.308512,0.14402 0.246372,0.21626 0.246371,0.21626 0.197875,0.33035 0.197886,0.33029 0.102258,0.40038 0.102264,0.40037 -0.03501,0.41819 -0.03501,0.41831 -0.15354,0.33537 -0.153552,0.33543 -0.312644,0.31267 -0.31265,0.3126 -0.344706,0.1578 -0.344711,0.15786 -0.378133,0.03 -0.378126,0.0306 -0.230971,-0.0638 -0.230965,-0.0638 4.54e-4,0.041 4.69e-4,0.041 0.214983,0.22678 0.214989,0.22685 0.267672,0.21931 0.267673,0.21932 0.45609,0.21038 0.45609,0.21032 0.365474,0.0672 0.365468,0.0673 0.435236,-0.006 0.435229,-0.006 0.405353,-0.10583 0.405359,-0.10583 0.355252,-0.21399 0.355252,-0.21399 0.301926,-0.29602 0.301932,-0.29607 0.253955,-0.37393 0.253968,-0.374 0.213513,-0.46214 0.213514,-0.46213 0.145858,-0.57495 0.145846,-0.57495 0.06103,-0.75662 0.06097,-0.75662 0.04101,-1.08342 0.04101,-1.08336 -0.04328,-0.25623 -0.04334,-0.25623 H 9.4729056 1.7792579 v -0.27716 -0.27722 h 5.2815594 5.2815637 l -0.554338,-0.28181 -0.554333,-0.28187 -0.396856,-0.28292 -0.396857,-0.28334 -0.421653,-0.36286 -0.4216529,-0.36291 -0.406516,-0.47242 -0.4065158,-0.47236 -0.3345018,-0.50884 -0.3345019,-0.50878 -0.2054645,-0.44592 -0.2054646,-0.44585 -0.1052694,-0.32338 -0.1052755,-0.32337 H 4.6362234 1.7792579 v -0.27716 -0.27716 h 2.7793625 2.7793631 l -0.034645,-0.17329 -0.034645,-0.17335 -0.073183,-0.67355 -0.073183,-0.67362 0.038501,-0.64002 0.038501,-0.63995 0.1823148,-0.89985 0.1823209,-0.89979 0.088877,-0.29253 0.088871,-0.29258 H 4.760498 1.7792947 v -0.27716 -0.27716 h 3.0959426 3.0959475 l 0.4819881,-0.97013 0.481988,-0.97006 0.192139,-0.30794 0.1921515,-0.30801 0.7351536,-1.01622 0.735153,-1.01633 0.300023,-0.38495 0.300022,-0.38496 H 6.5845525 1.7792947 v -0.30794 -0.30795 h 5.035188 5.0351863 l 0.453281,-0.59221 0.453268,-0.59221 -0.343145,-1.14727 -0.343145,-1.1472 -0.225553,-0.90848 -0.225554,-0.90848 H 6.6990579 1.7792947 v -0.30795 -0.30795 h 4.8699631 4.8699552 l -0.03171,-0.10779 -0.03171,-0.10779 -0.109769,-0.83155 -0.109762,-0.83148 -4.69e-4,-1.69381 -4.54e-4,-1.69375 0.141163,-0.64674 0.141175,-0.64675 0.245876,-0.7385 0.245863,-0.73851 0.278544,-0.52353 0.278537,-0.52365 0.328779,-0.49329 0.328779,-0.4933 0.407972,-0.47738 0.407967,-0.47732 0.311658,-0.24637 0.311713,-0.24631 h 0.154856 0.154862 l 0.357315,0.36512 0.357321,0.36518 0.461605,0.69731 0.461599,0.69731 0.279614,0.52353 0.279609,0.52353 0.346401,0.79635 0.346407,0.79634 0.267576,0.80504 0.267574,0.8051 0.143496,0.67753 0.143495,0.67754 -4.86e-4,1.17022 -4.86e-4,1.17028 -0.107926,0.55426 -0.107926,0.55444 -0.03654,0.16931 -0.03654,0.16943 h 11.956127 11.956141 v -1.99258 -1.99258 l 0.06674,-0.19146 0.06674,-0.19147 0.123387,-0.0392 0.123395,-0.0392 0.21022,0.0392 0.210214,0.0398 4.85e-4,0.10504 4.86e-4,0.10504 0.06288,0.55432 0.06288,0.55432 0.131198,0.49274 0.131203,0.49268 0.25886,0.64705 0.258858,0.64706 0.194103,0.38452 0.194104,0.38452 15.443505,0.0153 15.443497,0.0153 0.01555,12.11841 0.01555,12.11829 H 46.781974 18.242941 l -0.03869,1.77075 -0.03868,1.77081 -0.06526,0.49274 -0.06525,0.49275 -0.1522,0.57715 -0.152199,0.57715 -0.241212,0.51478 -0.241211,0.51471 -0.321311,0.46477 -0.321305,0.46477 -0.417381,0.41434 -0.417374,0.41427 -0.342055,0.20658 -0.342062,0.20665 -0.355925,0.14372 -0.355938,0.14372 -0.400346,0.065 -0.400351,0.0649 -0.461948,-0.006 -0.461942,-0.006 -0.431147,-0.0803 z m 62.116078,-12.44289 v -2.67935 H 48.281687 22.228042 v 0.2785 0.27851 l -0.09765,0.47475 -0.09764,0.47474 -0.173739,0.44867 -0.17375,0.44861 -0.2471,0.41366 -0.247094,0.41366 -0.380643,0.45014 -0.38063,0.4502 -0.394529,0.3254 -0.394532,0.32545 -0.507929,0.28683 -0.507922,0.2869 H 46.48011 74.335331 v -2.67936 z m -57.388846,2.08807 0.169381,-0.0392 v -0.27171 -0.27177 l -0.0941,-0.90677 -0.09409,-0.90671 -0.155131,-1.07785 -0.155125,-1.07785 -0.03214,-0.10785 -0.03214,-0.10773 h -1.905211 -1.905212 v 0.0545 0.0545 l 0.249585,0.37381 0.249579,0.37375 0.315135,0.28334 0.315135,0.28335 0.419724,0.24514 0.419725,0.24509 0.06263,0.11703 0.06263,0.11704 v 0.11893 0.11893 l -0.123938,0.15756 -0.123933,0.15755 -0.190296,0.0416 -0.190291,0.0422 -0.441455,-0.21822 -0.441454,-0.21821 -0.51271,-0.38165 -0.512715,-0.3817 -0.272429,-0.34566 -0.272434,-0.34571 -0.229955,-0.44629 -0.229961,-0.44628 -1.192517,-1.6e-4 -1.1925105,-3.3e-4 0.040705,0.23101 0.040705,0.23095 0.097936,0.308 0.097943,0.30795 0.171793,0.34364 0.1717927,0.34364 0.2272064,0.30311 0.2272064,0.30305 0.285343,0.29754 0.285344,0.29754 0.478169,0.3623 0.478162,0.36237 0.428662,0.25035 0.428655,0.25036 0.540603,0.20744 0.540603,0.20743 0.461942,0.0973 0.461948,0.0973 0.184769,0.0276 0.184782,0.0275 1.01628,-0.0251 1.016274,-0.0251 0.169381,-0.0392 z m 1.764484,-0.5635 0.391238,-0.23101 0.443059,-0.47052 0.443046,-0.47053 0.228498,-0.43484 0.228503,-0.43483 0.121453,-0.47493 0.121466,-0.47493 v -0.60605 -0.60604 h -1.546404 -1.546404 l 0.03446,0.0897 0.03446,0.0897 0.155297,1.06512 0.155303,1.06506 0.09402,0.94796 0.09401,0.9479 v 0.11453 0.11458 h 0.07839 0.07839 z m -7.63723,-4.98901 -0.05466,-0.231 -0.0024,-0.70827 -0.0024,-0.70832 0.124336,-0.48393 0.124343,-0.48393 0.223429,-0.43998 0.22343,-0.43998 0.207809,-0.28438 0.207797,-0.28439 0.430749,-0.40637 0.430736,-0.40631 0.201333,-0.10994 0.201333,-0.10999 -1.477004,-0.0165 -1.477004,-0.0165 -0.08135,0.0312 -0.08135,0.0312 -0.3640902,0.75527 -0.364091,0.75521 -0.1800684,0.55432 -0.1800747,0.55432 -0.099314,0.49275 -0.099308,0.49274 -0.060659,0.58511 -0.060659,0.58511 -0.00122,0.26179 -0.00122,0.2618 h 1.1328695 1.1329778 z m 5.364609,0.14538 v -0.0856 l -0.12332,-0.60726 -0.12332,-0.60733 -0.225052,-1.00091 -0.225064,-1.00091 h -0.1961 -0.196111 l -0.46589,0.11924 -0.465884,0.11911 -0.328895,0.16668 -0.328888,0.16661 -0.405402,0.40717 -0.405414,0.40705 -0.176714,0.36959 -0.17672,0.36952 -0.02577,0.63139 -0.02577,0.63126 h 1.947153 1.947148 z m 4.083478,-0.0533 -0.03171,-0.13858 -0.268395,-0.55432 -0.268394,-0.55432 -0.327433,-0.40037 -0.327438,-0.40038 -0.429193,-0.32368 -0.429194,-0.32368 -0.447847,-0.18675 -0.447844,-0.18675 -0.338927,-0.0681 -0.338928,-0.0681 -0.02552,0.0257 -0.02553,0.0257 0.149445,0.63242 0.149445,0.63237 0.189586,0.93688 0.189587,0.93695 0.02479,0.077 0.02479,0.077 h 1.505186 1.505185 z m 15.254065,-0.0892 -0.200047,-0.22789 -0.128512,-0.28022 -0.128516,-0.28034 0.0043,-0.58511 0.0043,-0.58517 0.158264,-0.4079 0.158273,-0.40797 0.154518,-0.24478 0.154514,-0.24472 0.302672,-0.36359 0.302667,-0.36353 0.426206,-0.34761 0.426201,-0.34749 0.369557,-0.22207 0.36955,-0.22201 -9.639228,-1.2e-4 -9.639232,-1.3e-4 0.492736,0.3156 0.492743,0.31561 0.497889,0.50051 0.497885,0.50046 0.326147,0.48631 0.326146,0.48632 0.176507,0.3893 0.176505,0.38929 0.150583,0.51962 0.150578,0.51961 0.03936,0.39101 0.03936,0.39095 0.02399,0.0769 0.02406,0.077 h 6.845083 6.845084 l -0.200042,-0.22783 z m 38.55944,-2.45141 v -2.6793 H 60.853327 47.371318 l -0.143525,0.40662 -0.143532,0.40656 -0.148705,0.11697 -0.148704,0.11692 h -0.111985 -0.111971 l -0.161503,-0.0736 -0.161497,-0.0736 -0.08778,-0.16974 -0.08777,-0.16974 v -0.0985 -0.0985 l 0.09398,-0.18173 0.09397,-0.18168 h -1.566322 -1.566315 l -0.02516,1.12407 -0.02516,1.12406 -0.152482,0.40038 -0.152486,0.40038 -0.252376,0.37118 -0.252381,0.3713 -0.361171,0.36279 -0.361172,0.36286 -0.468558,0.34375 -0.468559,0.34382 -0.11657,0.0734 -0.116575,0.0733 16.984144,0.006 16.98414,0.006 z m -59.328893,-3.31062 -0.02846,-0.077 -0.602823,-2.00176 -0.602823,-2.0017 -0.03844,-0.0441 -0.03844,-0.0441 -1.053496,1.3992 -1.053503,1.39915 -0.411333,0.63426 -0.411339,0.6342 -0.03434,0.0895 -0.03434,0.0894 h 2.168919 2.168919 z m 27.300773,-2.60486 v -2.67667 H 28.421726 14.536243 l -0.03042,0.0496 -0.03048,0.0496 0.50867,1.56748 0.508675,1.56753 0.30345,1.02864 0.303456,1.0287 0.307968,0.0226 0.307961,0.0226 12.795847,0.009 12.795854,0.009 z m 4.292706,2.1893 0.140398,-0.46177 0.129277,-0.63866 0.129275,-0.63867 0.04089,-0.6858 0.04089,-0.68574 -0.04107,-0.41519 -0.04107,-0.41519 -0.137302,-0.4625 -0.137301,-0.46245 h -1.808003 -1.808011 v 2.63817 2.63822 l 0.04205,0.0422 0.04205,0.0422 1.633751,-0.0159 1.633757,-0.0159 z m 27.735414,-2.18673 v -2.67924 H 61.123729 47.91213 l 0.0013,0.0769 0.0013,0.077 0.08902,0.49274 0.08903,0.49274 0.0018,0.68978 0.0018,0.68972 -0.09477,0.72693 -0.09476,0.72687 -0.151543,0.6159 -0.151545,0.6159 -6e-5,0.077 -6.2e-5,0.0769 h 13.365637 13.365574 v -2.67923 z m -32.02812,-5.94364 v -2.64851 H 30.250156 18.193104 l -0.147407,0.38495 -0.147412,0.38495 -0.274657,0.5509 -0.274657,0.55089 -0.280208,0.46538 -0.280202,0.46538 -0.390577,0.59601 -0.390564,0.596 -0.462058,0.62079 -0.462058,0.62086 v 0.03 0.0306 h 13.611951 13.611954 z m 3.907425,2.2327 -0.229876,-0.41574 -0.337353,-0.52359 -0.337361,-0.52353 -0.425589,-0.50688 -0.425583,-0.50689 -0.673014,-0.69412 -0.673013,-0.69419 -0.0024,2.14034 -0.0024,2.14034 h 1.668299 1.668297 l -0.229868,-0.41574 z m 28.120695,-2.2327 v -2.64851 H 59.549486 44.763638 l 0.0456,0.077 0.0456,0.0769 0.904725,1.44744 0.904723,1.4475 0.337367,0.67748 0.337361,0.67747 0.173145,0.44659 0.173146,0.44653 h 13.325052 13.325055 z m -60.277475,-0.26394 0.457541,-0.62918 0.366209,-0.58511 0.366209,-0.58511 0.169968,-0.29258 0.169975,-0.29259 H 14.108855 12.62996 l 0.211426,0.81612 0.211432,0.81605 0.15646,0.52353 0.156466,0.5236 0.06304,0.2007 0.06305,0.20077 0.05423,-0.0331 0.05423,-0.0331 z m 2.003009,-3.35469 0.178623,-0.3541 0.196767,-0.55432 0.19676,-0.55438 0.15204,-0.70827 0.152041,-0.70832 0.03654,-0.98959 0.03654,-0.98959 -0.07348,-0.50247 -0.07348,-0.50254 -0.142773,-0.41733 -0.142779,-0.41721 -0.237141,-0.47738 -0.237141,-0.47738 H 16.04774 15.9921 l -0.408174,0.28971 -0.408175,0.28971 -0.526678,0.52641 -0.52669,0.52647 -0.411149,0.61951 -0.411149,0.61963 -0.194502,0.42749 -0.194514,0.42743 -0.141065,0.41299 -0.141078,0.41286 -0.108954,0.51098 -0.108966,0.51099 -0.0037,0.86227 -0.0037,0.86233 0.05062,0.3541 0.05062,0.35422 h 1.688473 1.688473 l 0.17863,-0.35422 z"
       id="path9822"
       inkscape:connector-curvature="0" />
    <g
       id="g9847"
       transform="matrix(0.6121027,0,0,0.6121027,-154.72496,905.58736)">
      <path
         style="fill:#a2b6b9;stroke-width:0.06325313"
         d="m 328.77634,-1031.2095 7.4e-4,-0.1216 7.3e-4,-0.1216 0.41763,-0.4703 0.41763,-0.4702 0.26906,-0.3877 0.26907,-0.3876 0.30166,-0.5727 0.30166,-0.5726 0.41324,-1.4937 0.41324,-1.4936 0.21285,-0.4996 0.21285,-0.4996 0.30829,-0.5534 0.30829,-0.5533 0.27925,-0.4025 0.27926,-0.4024 0.3285,-0.3703 0.3285,-0.3704 0.36542,-0.3312 0.36543,-0.3311 0.48657,-0.3317 0.48658,-0.3317 0.57023,-0.2517 0.57024,-0.2517 0.39742,-0.1261 0.39742,-0.1261 0.354,-0.07 0.35401,-0.07 0.0894,-0.4291 0.0894,-0.4291 0.12447,-0.1623 0.12448,-0.1622 0.26662,-0.1317 0.26663,-0.1316 0.1786,-0.013 0.1786,-0.013 0.20181,-0.3199 0.20181,-0.32 0.7844,-1.1142 0.78439,-1.1142 0.55742,-0.72 0.55742,-0.72 0.68634,-0.8311 0.68634,-0.8311 0.90445,-1.0018 0.90446,-1.0019 0.90982,-0.9199 0.90983,-0.9199 -0.0583,-0.2736 -0.0583,-0.2736 0.0561,-0.2094 0.0561,-0.2094 0.27703,-0.2396 0.27703,-0.2396 0.41309,-0.1011 0.41308,-0.1011 0.4049,0.031 0.4049,0.031 1.35944,-1.4789 1.35944,-1.4788 1.04408,-1.0954 1.04408,-1.0954 0.99365,-1.0107 0.99364,-1.0108 1.30784,-1.2866 1.30784,-1.2867 1.26637,-1.2113 1.26638,-1.2113 0.80833,-0.8173 0.80833,-0.8172 1.77704,-1.7197 1.77703,-1.7198 1.37822,-1.2678 1.37823,-1.2678 1.85638,-1.6309 1.85638,-1.6308 1.21601,-1.0166 1.21601,-1.0166 0.78411,-0.6412 0.78412,-0.6412 0.51603,-0.3114 0.51602,-0.3115 0.31882,-0.1033 0.31881,-0.1033 0.19842,0.053 0.19842,0.053 0.0587,0.1613 0.0587,0.1612 -0.0825,0.3072 -0.0825,0.3071 -0.29484,0.5103 -0.29484,0.5104 -0.37511,0.5543 -0.3751,0.5544 -0.46576,0.6282 -0.46575,0.6283 -0.96016,1.1507 -0.96016,1.1506 -1.20921,1.4113 -1.20921,1.4113 -1.57572,1.7508 -1.57571,1.7508 -1.4369,1.5348 -1.43691,1.5348 -1.33282,1.3782 -1.33282,1.3782 -0.95742,1.0531 -0.95742,1.0532 -0.95925,1.0199 -0.95925,1.0199 -1.00062,1.0416 -1.00061,1.0416 -1.43501,1.4445 -1.435,1.4445 -1.13885,1.0993 -1.13885,1.0993 0.0685,0.1336 0.0685,0.1336 0.0342,0.3359 0.0341,0.3359 -0.0408,0.3125 -0.0408,0.3126 -0.20597,0.366 -0.20597,0.3661 -0.1837,0.1574 -0.18371,0.1574 -0.19107,0.053 -0.19108,0.053 -0.17417,-0.045 -0.17418,-0.045 -0.53233,0.5274 -0.53233,0.5274 -1.08532,1.0189 -1.08531,1.0188 -0.98347,0.8498 -0.98347,0.8497 -1.17927,0.9282 -1.17929,0.9282 -0.715,0.5001 -0.71499,0.5001 -0.27035,0.187 -0.27033,0.1871 -0.14185,0.4958 -0.14184,0.4959 -0.17402,0.1382 -0.17403,0.1382 -0.23882,0.083 -0.23882,0.083 -0.23536,-0.063 -0.23535,-0.063 -0.0293,0.1067 -0.0293,0.1067 -0.25902,0.7165 -0.25903,0.7164 -0.32647,0.731 -0.32648,0.7311 -0.35706,0.6283 -0.35707,0.6282 -0.38981,0.5468 -0.38982,0.5468 -0.40156,0.4521 -0.40156,0.4521 -0.54071,0.4742 -0.54072,0.4741 -0.62749,0.3807 -0.6275,0.3806 -0.7109,0.3314 -0.7109,0.3314 -0.65758,0.2392 -0.65759,0.2393 -0.73942,0.2088 -0.73942,0.2088 -0.75937,0.1457 -0.75936,0.1457 z m 11.1247,-11.9333 0.15625,-0.073 0.10745,-0.2448 0.10744,-0.2449 -0.115,-0.1992 -0.11499,-0.1991 -0.092,-0.025 -0.0921,-0.025 -0.1623,0.1015 -0.1623,0.1016 -0.13583,0.2201 -0.13583,0.2201 0.12945,0.1898 0.12946,0.1898 0.11202,0.03 0.11202,0.03 z m 1.47004,-1.2105 0.12289,-0.1144 0.53421,-0.8237 0.53421,-0.8236 0.53408,-0.56 0.53408,-0.5599 0.60021,-0.6905 0.60021,-0.6905 0.71979,-0.9203 0.71979,-0.9204 0.50147,-0.6187 0.50148,-0.6187 0.92134,-0.8867 0.92135,-0.8867 -0.014,-0.1731 -0.014,-0.1731 -0.0856,-0.092 -0.0856,-0.092 -0.19147,0.044 -0.19147,0.044 -0.39926,0.3187 -0.39926,0.3187 -0.46189,0.4778 -0.4619,0.4778 -0.51909,0.6345 -0.51909,0.6345 -0.53701,0.6747 -0.53701,0.6747 -0.18876,0.2441 -0.18876,0.2441 -1.19251,1.3503 -1.19252,1.3503 -0.52354,0.6767 -0.52355,0.6767 -0.0648,0.2418 -0.0648,0.2419 0.12658,0.1855 0.12657,0.1856 0.11738,0.032 0.11738,0.031 z m 8.30787,-10.4368 0.19138,-0.1204 0.0971,-0.2024 0.0971,-0.2023 -0.0701,-0.076 -0.0701,-0.076 -0.14,-0.039 -0.14,-0.038 -0.19015,0.1098 -0.19015,0.1097 -0.0489,0.1826 -0.0489,0.1827 0.1103,0.1314 0.11031,0.1315 0.0504,0.014 0.0504,0.014 0.19138,-0.1204 z"
         id="path9783"
         inkscape:connector-curvature="0"
         sodipodi:nodetypes="cccccccccccccccccccccccccccccccccccccccccccccccccccccccccccccccccccccccccccccccccccccccccccccccccccccccccccccccccccccccccccccccccccccccccccccccccccccccccccccccccccccccccccccccccccccccccccccccccccccccccccccccccccccccccccccccccccccccccccccccccccccccccccc" />
      <path
         style="fill:#e7b650;stroke-width:0.06325313"
         d="m 328.78395,-1031.2074 -0.01,-0.094 -0.01,-0.094 0.47631,-0.5503 0.4763,-0.5503 0.27364,-0.4178 0.27364,-0.4178 0.22452,-0.431 0.22452,-0.4309 0.53062,-1.7897 0.53061,-1.7896 0.30828,-0.605 0.30827,-0.6049 0.38257,-0.5794 0.38256,-0.5793 0.45573,-0.5124 0.45572,-0.5124 0.49523,-0.3845 0.49524,-0.3845 0.52611,-0.2953 0.52611,-0.2953 0.57092,-0.2127 0.57093,-0.2126 0.48058,-0.1169 0.48057,-0.1169 0.0573,-0.3605 0.0573,-0.3605 0.18215,-0.2516 0.18216,-0.2516 0.29467,-0.1127 0.29468,-0.1126 0.0803,0.022 0.0803,0.022 0.0857,-0.092 0.0858,-0.092 0.67517,-0.9978 0.67517,-0.9978 0.63583,-0.8447 0.63583,-0.8446 0.66944,-0.8356 0.66943,-0.8357 1.13513,-1.2674 1.13514,-1.2675 0.89996,-0.9025 0.89995,-0.9026 -0.0512,-0.1553 -0.0512,-0.1553 -0.004,-0.2042 -0.004,-0.2042 0.11933,-0.2031 0.11933,-0.2031 0.27902,-0.1805 0.27901,-0.1806 0.376,-0.068 0.37599,-0.069 0.30549,0.044 0.3055,0.044 0.0697,-0.022 0.0697,-0.022 1.20362,-1.3146 1.20363,-1.3146 0.44072,-0.4712 0.44073,-0.4713 1.35562,-1.4049 1.35563,-1.4048 1.16491,-1.1613 1.1649,-1.1612 1.60419,-1.5347 1.60419,-1.5347 1.05372,-1.0601 1.05372,-1.0601 1.24177,-1.2062 1.24177,-1.2061 1.22397,-1.1454 1.22396,-1.1455 0.86409,-0.7835 0.86408,-0.7834 1.37096,-1.2043 1.37097,-1.2043 1.14492,-0.9702 1.14491,-0.9701 0.96111,-0.7903 0.96111,-0.7902 0.44017,-0.3182 0.44018,-0.3183 0.4097,-0.1864 0.40972,-0.1864 0.23299,-0.013 0.23298,-0.013 0.12166,0.1362 0.12166,0.1362 -0.0181,0.2361 -0.0181,0.2362 -0.38124,0.6887 -0.38124,0.6888 -0.70566,0.9866 -0.70566,0.9865 -1.06749,1.2887 -1.06748,1.2887 -1.32688,1.5435 -1.32688,1.5435 -1.35601,1.503 -1.35602,1.5029 -0.46274,0.4981 -0.46274,0.4981 -1.3275,1.4124 -1.3275,1.4124 -1.0576,1.0918 -1.05761,1.0918 -0.8635,0.9473 -0.8635,0.9474 -1.10204,1.1781 -1.10205,1.1781 -1.13072,1.1704 -1.13072,1.1704 -0.89693,0.9057 -0.89693,0.9056 -0.75887,0.7462 -0.75887,0.7462 -0.63662,0.6152 -0.63662,0.6153 -0.10342,0.1129 -0.10342,0.1129 0.0948,0.4356 0.0948,0.4356 -0.15741,0.5874 -0.15742,0.5875 -0.23285,0.2566 -0.23285,0.2565 -0.18258,0.072 -0.18257,0.072 -0.21983,-0.035 -0.21982,-0.035 -1.2181,1.1727 -1.2181,1.1727 -1.39873,1.2296 -1.39874,1.2295 -1.12169,0.8862 -1.1217,0.8861 -1.05701,0.7396 -1.05702,0.7396 -0.11896,0.4435 -0.11897,0.4434 -0.16412,0.1853 -0.16413,0.1852 -0.30945,0.064 -0.30944,0.064 -0.2009,-0.054 -0.20089,-0.054 -0.11061,0.4128 -0.11061,0.4127 -0.30462,0.7666 -0.30463,0.7666 -0.35462,0.7069 -0.35463,0.7069 -0.40337,0.6316 -0.40337,0.6315 -0.56335,0.6621 -0.56335,0.6621 -0.57351,0.5067 -0.57351,0.5067 -0.74061,0.4281 -0.74061,0.4281 -0.77831,0.3386 -0.77832,0.3386 -0.81238,0.2698 -0.81237,0.2699 -1.12653,0.2455 -1.12647,0.2455 z m 12.29555,-10.1912 h 0.16484 l 0.003,-0.08 0.003,-0.08 0.0501,0.053 0.0501,0.053 0.15341,-0.1683 0.15341,-0.1683 0.0514,-0.3067 0.0514,-0.3067 -0.0538,-0.092 -0.0538,-0.092 0.007,0.1329 0.007,0.1329 -0.0381,-0.1025 -0.0381,-0.1026 0.048,-0.066 0.048,-0.066 -0.2127,-0.3195 -0.2127,-0.3196 -0.37834,-0.3494 -0.37834,-0.3494 -0.43327,-0.1464 -0.43327,-0.1464 -0.31781,0.061 -0.31781,0.061 -0.14149,0.1552 -0.14149,0.1553 -0.0568,0.2861 -0.0568,0.2861 0.60926,0.1701 0.60927,0.1701 0.21304,0.1991 0.21305,0.1992 0.15983,0.3124 0.15983,0.3124 0.0441,0.2381 0.0441,0.2381 0.12778,0.028 0.12779,0.028 h 0.16484 z m 0.32803,-0.3789 -0.0228,-0.076 0.0369,-0.021 0.0369,-0.021 0.0109,0.104 0.0109,0.104 -0.025,-0.01 -0.025,-0.01 z m 0.90538,-1.1884 0.21863,-0.1325 -0.0217,-0.072 -0.0216,-0.072 0.0834,-0.025 0.0834,-0.025 -0.0674,0.074 -0.0674,0.074 0.35946,-0.2311 0.35946,-0.2311 -3e-5,-0.131 -2e-5,-0.1309 0.0346,0.096 0.0346,0.096 0.37817,-0.2598 0.37816,-0.2598 -0.0341,-0.146 -0.0341,-0.146 -0.0668,0.02 -0.0668,0.02 0.0646,-0.089 0.0646,-0.089 0.0632,0.1914 0.0632,0.1915 0.0616,-0.058 0.0616,-0.058 -0.0507,-0.1253 -0.0507,-0.1254 0.0646,0.098 0.0646,0.098 0.13768,-0.071 0.13768,-0.071 0.0148,-0.055 0.0148,-0.055 -0.0663,0.02 -0.0663,0.02 -0.0206,-0.069 -0.0206,-0.069 0.11603,0.056 0.11603,0.056 0.37186,-0.2879 0.37186,-0.2879 -0.006,-0.1175 -0.006,-0.1175 0.0357,0.095 0.0358,0.094 0.10505,-0.074 0.10505,-0.074 -0.0774,-0.1509 -0.0774,-0.1508 0.0512,-0.03 0.0512,-0.03 -0.0201,0.075 -0.0201,0.075 0.0822,-0.025 0.0822,-0.025 -0.0587,0.055 -0.0588,0.055 0.0462,0.049 0.0462,0.049 0.13854,-0.1237 0.13854,-0.1237 0.0108,-0.04 0.0108,-0.04 -0.12939,0.055 -0.12939,0.055 0.11176,-0.084 0.11177,-0.084 0.0404,0.043 0.0404,0.043 0.3015,-0.2468 0.30152,-0.2468 0.009,-0.034 0.009,-0.034 -0.0881,0.023 -0.0881,0.024 0.0658,-0.042 0.0658,-0.042 0.0717,0.018 0.0716,0.018 0.0197,-0.107 0.0197,-0.1071 0.039,0.041 0.039,0.041 0.22827,-0.202 0.22827,-0.202 -0.0239,-0.08 -0.024,-0.08 0.0533,0.057 0.0533,0.057 0.15289,-0.1366 0.15289,-0.1365 0.021,-0.078 0.021,-0.078 0.0221,0.038 0.0221,0.038 0.20332,-0.1755 0.20333,-0.1755 -0.0215,-0.072 -0.0215,-0.072 0.0688,0.036 0.0688,0.036 0.0536,-0.077 0.0536,-0.077 -0.0755,0.023 -0.0755,0.023 -0.0206,-0.069 -0.0206,-0.069 0.11601,0.056 0.116,0.056 0.1169,-0.1248 0.1169,-0.1247 0.50201,-0.4619 0.50201,-0.4619 -0.0236,-0.078 -0.0236,-0.078 0.054,0.057 0.054,0.057 0.23554,-0.2325 0.23554,-0.2325 -0.0244,-0.081 -0.0244,-0.081 0.0563,0.06 0.0563,0.06 0.10052,-0.1072 0.10053,-0.1072 -0.0242,-0.081 -0.0242,-0.081 0.054,0.057 0.054,0.057 0.23105,-0.2281 0.23106,-0.228 0.0103,-0.039 0.0103,-0.039 -0.0822,0.025 -0.0822,0.025 0.0634,-0.06 0.0634,-0.06 0.043,0.046 0.043,0.046 0.23348,-0.2401 0.23348,-0.2401 -0.048,-0.3082 -0.0481,-0.3082 0.0174,-0.065 0.0174,-0.065 -0.13084,-0.465 -0.13084,-0.4651 -0.23466,-0.4064 -0.23466,-0.4065 -0.35708,-0.3168 -0.35708,-0.3167 -0.49449,-0.2147 -0.49449,-0.2146 -0.41606,-0.065 -0.41605,-0.065 -0.68773,0.6758 -0.68773,0.6758 -0.72019,0.7593 -0.72019,0.7593 -0.83502,0.955 -0.83502,0.955 -0.58412,0.7275 -0.58412,0.7275 -0.61505,0.8175 -0.61504,0.8175 -0.58736,0.8576 -0.58735,0.8576 -0.0768,0.1431 -0.0768,0.1432 0.27876,0.095 0.27875,0.094 0.30909,0.2058 0.30908,0.2058 0.10981,0.079 0.10982,0.079 -0.0599,-0.1429 -0.0599,-0.1429 0.0839,0.1118 0.0839,0.1117 -0.0414,0.039 -0.0414,0.039 0.21214,0.2429 0.21215,0.2429 h 0.0661 0.0661 l -0.0592,0.034 -0.0592,0.034 0.11887,0.2165 0.11888,0.2164 0.0382,0.01 0.0382,0.01 0.21863,-0.1325 z m -0.3752,-0.3321 0.0238,-0.089 0.0433,0.046 0.0433,0.046 -0.0504,0.047 -0.0504,0.048 h -0.0168 -0.0168 z m 0.48824,-0.055 0.0711,-0.098 0.025,0.043 0.025,0.043 -0.0961,0.055 -0.0961,0.055 z m -0.81022,-0.2562 -0.0688,-0.075 0.0714,-0.021 0.0713,-0.021 0.0106,0.1007 0.0106,0.1006 h -0.0131 -0.0131 l -0.0688,-0.075 z m 1.22387,0.01 -0.0552,-0.1294 0.0845,0.1125 0.0845,0.1125 -0.006,0.023 -0.006,0.023 -0.0231,-0.01 -0.0231,-0.01 z m -1.80495,-0.6102 0.0888,-0.011 0.027,0.047 0.027,0.047 -0.11581,-0.036 -0.11582,-0.036 0.0888,-0.011 z m 3.26488,-0.4393 -0.0552,-0.1294 0.0845,0.1125 0.0845,0.1125 -0.006,0.023 -0.006,0.023 -0.0231,-0.01 -0.0231,-0.01 z m 0.56069,-0.2916 0.0587,-0.038 -0.0421,-0.091 -0.0421,-0.091 0.10063,-0.011 0.10064,-0.011 0.0238,0.079 0.0238,0.079 -0.0675,-0.072 -0.0675,-0.072 0.0115,0.11 0.0115,0.1099 -0.085,0.023 -0.085,0.023 z m 2.02263,-1.7422 0.006,-0.023 0.11373,-0.052 0.11374,-0.052 -0.0654,0.09 -0.0654,0.09 -0.0546,-0.015 -0.0546,-0.015 z m 0.31246,-0.6773 0.0981,-0.1047 0.0306,0.01 0.0306,0.01 -0.0981,0.1047 -0.0981,0.1046 -0.0306,-0.01 -0.0306,-0.01 z m 0.56045,-0.1365 0.006,-0.023 0.12939,-0.055 0.12939,-0.055 -0.1125,0.084 -0.1125,0.084 -0.0231,-0.01 -0.0231,-0.01 z m 0.95811,-0.8536 -0.0458,-0.1 0.0907,0.024 0.0907,0.024 -0.0218,0.082 -0.0218,0.081 -0.0231,-0.01 -0.0231,-0.01 z m 0.40748,-0.308 0.11698,-0.1131 0.0214,0.037 0.0214,0.037 -0.13837,0.076 -0.13837,0.076 z m -0.34533,-0.2021 0.006,-0.023 0.12939,-0.055 0.12939,-0.055 -0.1125,0.084 -0.11251,0.084 -0.0231,-0.01 -0.0231,-0.01 z m 1.42616,-1.3001 -0.0228,-0.076 0.0369,-0.021 0.0369,-0.021 0.0109,0.104 0.0109,0.1039 -0.025,-0.01 -0.025,-0.01 z m 0.2142,-0.2849 0.0711,-0.098 0.025,0.043 0.025,0.043 -0.0961,0.055 -0.0961,0.055 z m 0.76509,-0.4114 -0.0124,-0.1208 0.0557,0.096 0.0557,0.096 -0.0434,0.025 -0.0434,0.025 z m 0.11547,-0.4467 -0.0214,-0.071 0.0647,0.017 0.0647,0.017 -0.0164,0.061 -0.0164,0.061 -0.0269,-0.01 -0.0269,-0.01 z m 0.97757,0.4693 0.13136,-0.085 0.1779,-0.2656 0.1779,-0.2656 0.0676,-0.3971 0.0676,-0.3972 -0.0603,-0.2831 -0.0603,-0.2832 -0.0795,0.024 -0.0795,0.024 0.06,-0.056 0.06,-0.056 -0.0712,-0.1694 -0.0712,-0.1695 -0.27207,-0.451 -0.27207,-0.4509 -0.4593,-0.4185 -0.45931,-0.4186 -0.4417,-0.2513 -0.44171,-0.2513 -0.48785,-0.1345 -0.48785,-0.1345 -0.29763,0.028 -0.29764,0.028 -0.24427,0.1003 -0.24429,0.1004 -0.14658,0.1608 -0.14659,0.1609 -0.003,0.1619 -0.003,0.1619 0.11623,-0.016 0.11624,-0.016 0.28814,0.024 0.28813,0.024 0.39783,0.1038 0.39783,0.1038 0.40358,0.2046 0.40358,0.2045 0.3438,0.3055 0.3438,0.3054 0.3128,0.5434 0.3128,0.5434 0.12457,0.458 0.12458,0.458 0.0346,0.3858 0.0346,0.3859 0.10454,0.028 0.10454,0.028 0.13136,-0.085 z m -0.25204,-0.2286 0.0711,-0.098 0.025,0.043 0.025,0.043 -0.0961,0.055 -0.0961,0.055 z m -0.0323,-0.5063 0.0201,-0.075 -0.0822,0.025 -0.0822,0.025 0.0672,-0.063 0.0672,-0.063 0.0479,0.083 0.0479,0.083 -0.0529,0.031 -0.0529,0.031 z m 0.69323,-1.0011 -0.0217,-0.072 -0.0773,0.023 -0.0773,0.023 0.0651,-0.061 0.0651,-0.061 0.067,0.095 0.067,0.095 -0.006,0.023 -0.006,0.023 -0.0269,-0.01 -0.0269,-0.01 z"
         id="path9781"
         inkscape:connector-curvature="0"
         sodipodi:nodetypes="ccccccccccccccccccccccccccccccccccccccccccccccccccccccccccccccccccccccccccccccccccccccccccccccccccccccccccccccccccccccccccccccccccccccccccccccccccccccccccccccccccccccccccccccccccccccccccccccccccccccccccccccccccccccccccccccccccccccccccccccccccccccccccccccccccccccccccccccccccccccccccccccccccccccccccccccccccccccccccccccccccccccccccccccccccccccccccccccccccccccccccccccccccccccccccccccccccccccccccccccccccccccccccccccccccccccccccccccccccccccccccccccccccccccccccccccccccccccccccccccccccccccccccccccccccccccccccccccccccccccccccccccccccccccccccccccccccccccccccccccccccccccccccccccccccccccccccccccccccccccccccccccccccccccccccccccccccccccccccccccccccccccc" />
      <path
         style="fill:#999999;stroke-width:0.06325313"
         d="m 328.78395,-1031.2074 -0.01,-0.094 -0.01,-0.094 0.47631,-0.5503 0.4763,-0.5503 0.27364,-0.4178 0.27364,-0.4178 0.22436,-0.431 0.22437,-0.431 0.54257,-1.8192 0.54258,-1.8191 0.20546,-0.3917 0.20547,-0.3917 0.30318,-0.5198 0.30318,-0.5197 0.26706,-0.3527 0.26705,-0.3527 0.28424,-0.3182 0.28424,-0.3181 0.4233,-0.3679 0.4233,-0.3679 0.55803,-0.3416 0.55802,-0.3416 0.60572,-0.2434 0.60571,-0.2433 0.55874,-0.1295 0.55875,-0.1295 0.0592,-0.3724 0.0592,-0.3723 0.18215,-0.2516 0.18216,-0.2516 0.29467,-0.1127 0.29468,-0.1126 0.0803,0.022 0.0803,0.022 0.0857,-0.092 0.0858,-0.092 0.67517,-0.9978 0.67517,-0.9978 0.63583,-0.8447 0.63583,-0.8446 0.66944,-0.8356 0.66943,-0.8357 1.13513,-1.2674 1.13514,-1.2675 0.89996,-0.9025 0.89995,-0.9026 -0.0512,-0.1553 -0.0512,-0.1553 -0.004,-0.2042 -0.004,-0.2042 0.11933,-0.2031 0.11933,-0.2031 0.27902,-0.1805 0.27901,-0.1806 0.376,-0.068 0.37599,-0.069 0.30549,0.044 0.3055,0.044 0.0697,-0.022 0.0697,-0.022 1.20352,-1.3152 1.20352,-1.3151 0.39286,-0.4181 0.39285,-0.4181 0.99853,-1.0421 0.99853,-1.0421 1.07652,-1.0867 1.07652,-1.0868 0.89205,-0.8742 0.89204,-0.8742 1.18149,-1.1241 1.18149,-1.124 1.23311,-1.2413 1.23311,-1.2412 1.43594,-1.3833 1.43593,-1.3833 1.31504,-1.2193 1.31504,-1.2192 2.02472,-1.7822 2.02471,-1.7822 1.31361,-1.0993 1.31361,-1.0993 0.77847,-0.6321 0.77848,-0.6321 0.51751,-0.2949 0.51751,-0.2949 0.32718,-0.063 0.3272,-0.063 0.13459,0.1309 0.1346,0.1309 -0.004,0.2436 -0.004,0.2436 -0.38603,0.6975 -0.38603,0.6974 -0.70566,0.9866 -0.70566,0.9865 -1.06749,1.2887 -1.06748,1.2887 -1.32688,1.5435 -1.32688,1.5435 -1.35659,1.5028 -1.35659,1.5028 -0.82768,0.8915 -0.82768,0.8914 -0.64112,0.6795 -0.64113,0.6795 -1.47358,1.537 -1.47359,1.5369 -1.57396,1.7065 -1.57396,1.7065 -0.94784,0.9903 -0.94784,0.9902 -1.06683,1.0893 -1.06683,1.0893 -1.0672,1.0565 -1.0672,1.0565 -0.74253,0.7124 -0.74253,0.7125 0.0956,0.4532 0.0956,0.4532 -0.15681,0.5853 -0.15682,0.5852 -0.23285,0.2566 -0.23285,0.2565 -0.18258,0.072 -0.18257,0.072 -0.21983,-0.035 -0.21982,-0.035 -1.2181,1.1727 -1.2181,1.1727 -1.39873,1.2296 -1.39874,1.2295 -1.12169,0.8862 -1.1217,0.8861 -1.05701,0.7396 -1.05702,0.7396 -0.11896,0.4435 -0.11897,0.4434 -0.16412,0.1853 -0.16413,0.1852 -0.30945,0.064 -0.30944,0.064 -0.19159,-0.051 -0.19158,-0.051 -0.23328,0.7066 -0.23329,0.7067 -0.26571,0.6167 -0.26572,0.6166 -0.34286,0.6581 -0.34286,0.6582 -0.38707,0.5869 -0.38707,0.587 -0.51757,0.6095 -0.51757,0.6096 -0.5729,0.5062 -0.5729,0.5061 -0.74061,0.4281 -0.74061,0.4281 -0.77831,0.3386 -0.77832,0.3386 -0.81238,0.2698 -0.81237,0.2699 -1.12653,0.2455 -1.12647,0.2455 z m 12.29555,-10.1912 h 0.16484 l 0.003,-0.08 0.003,-0.08 0.0501,0.053 0.0501,0.053 0.15341,-0.1683 0.15341,-0.1683 0.0514,-0.3067 0.0514,-0.3067 -0.0538,-0.092 -0.0538,-0.092 0.007,0.1329 0.007,0.1329 -0.0381,-0.1025 -0.0381,-0.1026 0.048,-0.066 0.048,-0.066 -0.2127,-0.3195 -0.2127,-0.3196 -0.37834,-0.3494 -0.37834,-0.3494 -0.43327,-0.1464 -0.43327,-0.1464 -0.31781,0.061 -0.31781,0.061 -0.14149,0.1552 -0.14149,0.1553 -0.0568,0.2861 -0.0568,0.2861 0.60926,0.1701 0.60927,0.1701 0.21304,0.1991 0.21305,0.1992 0.15983,0.3124 0.15983,0.3124 0.0441,0.2381 0.0441,0.2381 0.12778,0.028 0.12779,0.028 h 0.16484 z m 0.32803,-0.3789 -0.0228,-0.076 0.0369,-0.021 0.0369,-0.021 0.0109,0.104 0.0109,0.104 -0.025,-0.01 -0.025,-0.01 z m 0.90538,-1.1884 0.21863,-0.1325 -0.0217,-0.072 -0.0216,-0.072 0.0834,-0.025 0.0834,-0.025 -0.0674,0.074 -0.0674,0.074 0.35946,-0.2311 0.35946,-0.2311 -3e-5,-0.131 -2e-5,-0.1309 0.0346,0.096 0.0346,0.096 0.37817,-0.2598 0.37816,-0.2598 -0.0341,-0.146 -0.0341,-0.146 -0.0668,0.02 -0.0668,0.02 0.0646,-0.089 0.0646,-0.089 0.0632,0.1914 0.0632,0.1915 0.0616,-0.058 0.0616,-0.058 -0.0507,-0.1253 -0.0507,-0.1254 0.0646,0.098 0.0646,0.098 0.13768,-0.071 0.13768,-0.071 0.0148,-0.055 0.0148,-0.055 -0.0663,0.02 -0.0663,0.02 -0.0206,-0.069 -0.0206,-0.069 0.11603,0.056 0.11603,0.056 0.37186,-0.2879 0.37186,-0.2879 -0.006,-0.1175 -0.006,-0.1175 0.0357,0.095 0.0358,0.094 0.10505,-0.074 0.10505,-0.074 -0.0774,-0.1509 -0.0774,-0.1508 0.0512,-0.03 0.0512,-0.03 -0.0201,0.075 -0.0201,0.075 0.0822,-0.025 0.0822,-0.025 -0.0587,0.055 -0.0588,0.055 0.0462,0.049 0.0462,0.049 0.13854,-0.1237 0.13854,-0.1237 0.0108,-0.04 0.0108,-0.04 -0.12939,0.055 -0.12939,0.055 0.11176,-0.084 0.11177,-0.084 0.0404,0.043 0.0404,0.043 0.3015,-0.2468 0.30152,-0.2468 0.009,-0.034 0.009,-0.034 -0.0881,0.023 -0.0881,0.024 0.0658,-0.042 0.0658,-0.042 0.0717,0.018 0.0716,0.018 0.0197,-0.107 0.0197,-0.1071 0.039,0.041 0.039,0.041 0.22827,-0.202 0.22827,-0.202 -0.0239,-0.08 -0.024,-0.08 0.0533,0.057 0.0533,0.057 0.15289,-0.1366 0.15289,-0.1365 0.021,-0.078 0.021,-0.078 0.0221,0.038 0.0221,0.038 0.20332,-0.1755 0.20333,-0.1755 -0.0215,-0.072 -0.0215,-0.072 0.0688,0.036 0.0688,0.036 0.0536,-0.077 0.0536,-0.077 -0.0755,0.023 -0.0755,0.023 -0.0206,-0.069 -0.0206,-0.069 0.11601,0.056 0.116,0.056 0.1169,-0.1248 0.1169,-0.1247 0.50201,-0.4619 0.50201,-0.4619 -0.0236,-0.078 -0.0236,-0.078 0.054,0.057 0.054,0.057 0.23554,-0.2325 0.23554,-0.2325 -0.0244,-0.081 -0.0244,-0.081 0.0563,0.06 0.0563,0.06 0.10052,-0.1072 0.10053,-0.1072 -0.0242,-0.081 -0.0242,-0.081 0.054,0.057 0.054,0.057 0.23105,-0.2281 0.23106,-0.228 0.0103,-0.039 0.0103,-0.039 -0.0822,0.025 -0.0822,0.025 0.0634,-0.06 0.0634,-0.06 0.043,0.046 0.043,0.046 0.23348,-0.2401 0.23348,-0.2401 -0.048,-0.3082 -0.0481,-0.3082 0.0174,-0.065 0.0174,-0.065 -0.13084,-0.465 -0.13084,-0.4651 -0.23466,-0.4064 -0.23466,-0.4065 -0.35708,-0.3168 -0.35708,-0.3167 -0.49449,-0.2147 -0.49449,-0.2146 -0.41606,-0.065 -0.41605,-0.065 -0.68773,0.6758 -0.68773,0.6758 -0.72019,0.7593 -0.72019,0.7593 -0.83502,0.955 -0.83502,0.955 -0.58412,0.7275 -0.58412,0.7275 -0.61505,0.8175 -0.61504,0.8175 -0.58736,0.8576 -0.58735,0.8576 -0.0768,0.1431 -0.0768,0.1432 0.27876,0.095 0.27875,0.094 0.30909,0.2058 0.30908,0.2058 0.10981,0.079 0.10982,0.079 -0.0599,-0.1429 -0.0599,-0.1429 0.0839,0.1118 0.0839,0.1117 -0.0414,0.039 -0.0414,0.039 0.21214,0.2429 0.21215,0.2429 h 0.0661 0.0661 l -0.0592,0.034 -0.0592,0.034 0.11887,0.2165 0.11888,0.2164 0.0382,0.01 0.0382,0.01 0.21863,-0.1325 z m -0.3752,-0.3321 0.0238,-0.089 0.0433,0.046 0.0433,0.046 -0.0504,0.047 -0.0504,0.048 h -0.0168 -0.0168 z m 0.48824,-0.055 0.0711,-0.098 0.025,0.043 0.025,0.043 -0.0961,0.055 -0.0961,0.055 z m -0.81022,-0.2562 -0.0688,-0.075 0.0714,-0.021 0.0713,-0.021 0.0106,0.1007 0.0106,0.1006 h -0.0131 -0.0131 l -0.0688,-0.075 z m 1.22387,0.01 -0.0552,-0.1294 0.0845,0.1125 0.0845,0.1125 -0.006,0.023 -0.006,0.023 -0.0231,-0.01 -0.0231,-0.01 z m -1.80495,-0.6102 0.0888,-0.011 0.027,0.047 0.027,0.047 -0.11581,-0.036 -0.11582,-0.036 0.0888,-0.011 z m 3.26488,-0.4393 -0.0552,-0.1294 0.0845,0.1125 0.0845,0.1125 -0.006,0.023 -0.006,0.023 -0.0231,-0.01 -0.0231,-0.01 z m 0.56069,-0.2916 0.0587,-0.038 -0.0421,-0.091 -0.0421,-0.091 0.10063,-0.011 0.10064,-0.011 0.0238,0.079 0.0238,0.079 -0.0675,-0.072 -0.0675,-0.072 0.0115,0.11 0.0115,0.1099 -0.085,0.023 -0.085,0.023 z m 2.02263,-1.7422 0.006,-0.023 0.11373,-0.052 0.11374,-0.052 -0.0654,0.09 -0.0654,0.09 -0.0546,-0.015 -0.0546,-0.015 z m 0.31246,-0.6773 0.0981,-0.1047 0.0306,0.01 0.0306,0.01 -0.0981,0.1047 -0.0981,0.1046 -0.0306,-0.01 -0.0306,-0.01 z m 0.56045,-0.1365 0.006,-0.023 0.12939,-0.055 0.12939,-0.055 -0.1125,0.084 -0.1125,0.084 -0.0231,-0.01 -0.0231,-0.01 z m 0.95811,-0.8536 -0.0458,-0.1 0.0907,0.024 0.0907,0.024 -0.0218,0.082 -0.0218,0.081 -0.0231,-0.01 -0.0231,-0.01 z m 0.40748,-0.308 0.11698,-0.1131 0.0214,0.037 0.0214,0.037 -0.13837,0.076 -0.13837,0.076 z m -0.34533,-0.2021 0.006,-0.023 0.12939,-0.055 0.12939,-0.055 -0.1125,0.084 -0.11251,0.084 -0.0231,-0.01 -0.0231,-0.01 z m 1.42616,-1.3001 -0.0228,-0.076 0.0369,-0.021 0.0369,-0.021 0.0109,0.104 0.0109,0.1039 -0.025,-0.01 -0.025,-0.01 z m 0.2142,-0.2849 0.0711,-0.098 0.025,0.043 0.025,0.043 -0.0961,0.055 -0.0961,0.055 z m 0.76509,-0.4114 -0.0124,-0.1208 0.0557,0.096 0.0557,0.096 -0.0434,0.025 -0.0434,0.025 z m 0.11547,-0.4467 -0.0214,-0.071 0.0647,0.017 0.0647,0.017 -0.0164,0.061 -0.0164,0.061 -0.0269,-0.01 -0.0269,-0.01 z m 0.97757,0.4693 0.13136,-0.085 0.1779,-0.2656 0.1779,-0.2656 0.0676,-0.3971 0.0676,-0.3972 -0.0603,-0.2831 -0.0603,-0.2832 -0.0795,0.024 -0.0795,0.024 0.06,-0.056 0.06,-0.056 -0.0712,-0.1694 -0.0712,-0.1695 -0.27207,-0.451 -0.27207,-0.4509 -0.4593,-0.4185 -0.45931,-0.4186 -0.4417,-0.2513 -0.44171,-0.2513 -0.48785,-0.1345 -0.48785,-0.1345 -0.29763,0.028 -0.29764,0.028 -0.24427,0.1003 -0.24429,0.1004 -0.14658,0.1608 -0.14659,0.1609 -0.003,0.1619 -0.003,0.1619 0.11623,-0.016 0.11624,-0.016 0.28814,0.024 0.28813,0.024 0.39783,0.1038 0.39783,0.1038 0.40358,0.2046 0.40358,0.2045 0.3438,0.3055 0.3438,0.3054 0.3128,0.5434 0.3128,0.5434 0.12457,0.458 0.12458,0.458 0.0346,0.3858 0.0346,0.3859 0.10454,0.028 0.10454,0.028 0.13136,-0.085 z m -0.25204,-0.2286 0.0711,-0.098 0.025,0.043 0.025,0.043 -0.0961,0.055 -0.0961,0.055 z m -0.0323,-0.5063 0.0201,-0.075 -0.0822,0.025 -0.0822,0.025 0.0672,-0.063 0.0672,-0.063 0.0479,0.083 0.0479,0.083 -0.0529,0.031 -0.0529,0.031 z m 0.69323,-1.0011 -0.0217,-0.072 -0.0773,0.023 -0.0773,0.023 0.0651,-0.061 0.0651,-0.061 0.067,0.095 0.067,0.095 -0.006,0.023 -0.006,0.023 -0.0269,-0.01 -0.0269,-0.01 z m 0.17219,-2.3149 0.26886,-0.2179 0.66321,-0.5754 0.6632,-0.5754 0.0417,-0.022 0.0417,-0.022 0.34141,-0.3014 0.34142,-0.3014 0.088,-0.08 0.088,-0.08 0.19199,-0.1725 0.192,-0.1724 0.0858,-0.075 0.0858,-0.075 0.43424,-0.3933 0.43424,-0.3932 0.71318,-0.6745 0.71318,-0.6745 0.13861,-0.1265 0.13861,-0.1266 0.365,-0.3606 0.36499,-0.3606 0.91673,-0.9003 0.91673,-0.9004 0.17744,-0.1816 0.17744,-0.1817 1.06083,-1.0909 1.06084,-1.0909 1.01104,-1.0715 1.01104,-1.0715 0.94092,-1.0249 0.94092,-1.0248 2.47571,-2.8073 2.47571,-2.8073 1.19633,-1.4148 1.19633,-1.4148 0.65044,-0.7752 0.65045,-0.7753 0.82089,-0.9915 0.8209,-0.9915 0.62366,-0.767 0.62365,-0.7671 0.008,-0.03 0.008,-0.03 -0.0609,-0.016 -0.0609,-0.016 -0.30314,0.155 -0.30314,0.1552 0.0224,0.074 0.0224,0.074 -0.0604,-0.064 -0.0604,-0.064 -0.27594,0.1767 -0.27595,0.1767 -1.53529,1.2584 -1.5353,1.2585 -1.01837,0.8731 -1.01838,0.8731 -1.24886,1.106 -1.24887,1.1061 -0.47628,0.429 -0.47628,0.429 -1.17486,1.0931 -1.17486,1.0931 -1.19473,1.1533 -1.19474,1.1532 -0.98377,0.9806 -0.98377,0.9807 -0.62339,0.6187 -0.6234,0.6188 -1.67807,1.6131 -1.67808,1.6131 -1.20817,1.2152 -1.20817,1.2151 -1.04649,1.0948 -1.04649,1.0948 -0.29737,0.3132 -0.29738,0.3132 -1.10478,1.1997 -1.10479,1.1997 0.0159,0.02 0.0159,0.02 0.57981,0.3673 0.57982,0.3674 0.29481,0.2788 0.29481,0.2787 0.0984,0.1171 0.0984,0.1171 h 0.0656 0.0656 z"
         id="path9779"
         inkscape:connector-curvature="0"
         sodipodi:nodetypes="cccccccccccccccccccccccccccccccccccccccccccccccccccccccccccccccccccccccccccccccccccccccccccccccccccccccccccccccccccccccccccccccccccccccccccccccccccccccccccccccccccccccccccccccccccccccccccccccccccccccccccccccccccccccccccccccccccccccccccccccccccccccccccccccccccccccccccccccccccccccccccccccccccccccccccccccccccccccccccccccccccccccccccccccccccccccccccccccccccccccccccccccccccccccccccccccccccccccccccccccccccccccccccccccccccccccccccccccccccccccccccccccccccccccccccccccccccccccccccccccccccccccccccccccccccccccccccccccccccccccccccccccccccccccccccccccccccccccccccccccccccccccccccccccccccccccccccccccccccccccccccccccccccccccccccccccccccccccccccccccccccccccccccccccccccccccccccccccccccccccccccccccccccccccccccccccccccccccccccccccccccccccccccccc" />
      <path
         style="fill:#a3541e;fill-opacity:1;stroke-width:0.06325313"
         d="m 328.86384,-1031.186 -0.0486,-0.1058 -0.0486,-0.1057 0.42518,-0.4777 0.42519,-0.4778 0.2122,-0.2901 0.2122,-0.2902 0.32068,-0.5689 0.32067,-0.5689 0.53184,-1.7893 0.53184,-1.7893 0.1757,-0.3786 0.17569,-0.3785 0.32215,-0.5685 0.32215,-0.5686 0.29461,-0.3983 0.29462,-0.3983 0.29324,-0.3282 0.29323,-0.3282 0.4233,-0.3679 0.4233,-0.3679 0.55803,-0.3416 0.55802,-0.3416 0.60572,-0.2434 0.60571,-0.2433 0.56299,-0.1305 0.56299,-0.1305 0.056,-0.3728 0.056,-0.3729 0.17672,-0.2441 0.17671,-0.2441 0.30191,-0.1179 0.30191,-0.1179 0.0775,0.021 0.0775,0.021 0.0966,-0.1031 0.0966,-0.103 0.55292,-0.8198 0.55292,-0.8198 0.64431,-0.8751 0.64431,-0.8751 0.49822,-0.6257 0.49822,-0.6257 0.73978,-0.8761 0.73977,-0.8762 0.87775,-0.9435 0.87775,-0.9436 0.69117,-0.6928 0.69118,-0.6929 -0.0646,-0.2197 -0.0646,-0.2198 0.0702,-0.2627 0.0702,-0.2628 0.1304,-0.1419 0.1304,-0.1419 0.21757,-0.118 0.21757,-0.1181 0.38015,-0.064 0.38014,-0.064 0.33759,0.04 0.3376,0.04 1.082,-1.1835 1.082,-1.1835 0.53754,-0.5763 0.53754,-0.5763 0.99934,-1.0419 0.99934,-1.0419 1.07652,-1.0867 1.07652,-1.0868 0.89204,-0.8742 0.89205,-0.8742 1.18149,-1.1241 1.18149,-1.124 1.23311,-1.2413 1.23311,-1.2412 1.43594,-1.3833 1.43593,-1.3833 1.31504,-1.2193 1.31504,-1.2192 2.02472,-1.7822 2.02471,-1.7822 1.31361,-1.0993 1.31361,-1.0993 0.77847,-0.6321 0.77848,-0.6321 0.51751,-0.2949 0.5175,-0.2949 0.32719,-0.063 0.32719,-0.063 0.1346,0.1309 0.1346,0.1309 -0.004,0.2436 -0.004,0.2436 -0.38604,0.6975 -0.38599,0.6974 -0.70567,0.9866 -0.70565,0.9866 -1.06749,1.2886 -1.06748,1.2887 -1.32688,1.5435 -1.32688,1.5435 -1.35659,1.5028 -1.35659,1.5028 -0.82768,0.8915 -0.82768,0.8914 -0.64113,0.6795 -0.64112,0.6795 -1.47359,1.537 -1.47358,1.5369 -1.57396,1.7065 -1.57396,1.7066 -0.94784,0.9902 -0.94784,0.9902 -1.06683,1.0893 -1.06683,1.0894 -1.0672,1.0564 -1.0672,1.0565 -0.74468,0.7145 -0.74468,0.7145 0.0913,0.4505 0.0913,0.4504 -0.0822,0.4266 -0.0822,0.4266 -0.21195,0.3412 -0.21195,0.3413 -0.24845,0.1533 -0.24844,0.1533 -0.23761,-0.062 -0.23761,-0.062 -0.93133,0.9097 -0.93134,0.9097 -1.01882,0.9307 -1.01882,0.9306 -0.65193,0.5549 -0.65193,0.5549 -0.75741,0.6157 -0.75741,0.6156 -0.94522,0.6962 -0.94522,0.6963 -0.49126,0.3267 -0.49127,0.3268 -0.12147,0.4487 -0.12146,0.4487 -0.15964,0.1876 -0.15965,0.1877 -0.21892,0.064 -0.21892,0.064 -0.29133,-0.038 -0.29134,-0.038 -0.23111,0.7001 -0.23111,0.7 -0.26571,0.6167 -0.26572,0.6166 -0.34286,0.6582 -0.34286,0.6581 -0.38594,0.5873 -0.38594,0.5872 -0.55412,0.6373 -0.55411,0.6374 -0.45005,0.4033 -0.45006,0.4032 -1.05203,0.6057 -1.05204,0.6057 -0.84278,0.3348 -0.84279,0.3349 -0.92224,0.2647 -0.92223,0.2647 -0.75857,0.1427 -0.75856,0.1427 z m 3.42914,-3.115 0.33055,-0.1669 1.13238,-0.7168 1.13238,-0.7168 0.23637,-0.1751 0.23636,-0.175 0.1238,-0.2981 0.12381,-0.2981 0.32515,-0.4741 0.32516,-0.4742 0.37886,-0.4243 0.37885,-0.4243 0.0946,-0.2269 0.0946,-0.2269 -0.0855,-0.062 -0.0855,-0.062 -0.24626,0.045 -0.24626,0.045 -0.57914,0.3584 -0.57913,0.3583 -0.56894,0.4992 -0.56894,0.4992 -0.30157,0.1543 -0.30157,0.1543 -0.20419,-0.055 -0.2042,-0.055 -0.0654,-0.1322 -0.0653,-0.1321 -0.0583,-0.2819 -0.0583,-0.2819 -0.0734,-0.1037 -0.0734,-0.1036 -0.25126,0.075 -0.25127,0.075 -0.021,0.071 -0.021,0.071 -0.18427,0.4418 -0.18426,0.4418 -0.33222,1.2444 -0.33222,1.2445 -0.17595,0.4131 -0.17596,0.4131 -0.0796,0.1495 -0.0796,0.1495 0.60525,-0.3355 0.60525,-0.3354 0.33055,-0.1669 z m 8.91157,-7.0978 0.19544,-0.043 0.1209,-0.1575 0.1209,-0.1576 0.0698,-0.2467 0.0698,-0.2467 -0.0718,-0.2809 -0.0718,-0.2808 -0.31745,-0.3961 -0.31744,-0.3961 -0.30731,-0.2346 -0.30731,-0.2346 -0.38025,-0.1034 -0.38026,-0.1033 -0.27283,0.032 -0.27284,0.033 -0.16709,0.138 -0.16709,0.1379 -0.0921,0.3436 -0.0921,0.3436 0.39444,0.063 0.39443,0.064 0.33105,0.1667 0.33106,0.1667 0.20587,0.2652 0.20587,0.2653 0.11355,0.4047 0.11355,0.4048 0.17776,0.048 0.17775,0.048 0.19544,-0.043 z m 1.44087,-1.7787 0.55067,-0.3771 0.61898,-0.4555 0.61897,-0.4555 0.83254,-0.661 0.83253,-0.6609 0.7597,-0.6478 0.75969,-0.6477 0.91721,-0.8348 0.9172,-0.8347 1.03141,-1.0006 1.0314,-1.0006 0.004,-0.1625 0.004,-0.1626 -0.11984,-0.6295 -0.11984,-0.6294 -0.2582,-0.4541 -0.25819,-0.4541 -0.33757,-0.3141 -0.33757,-0.3142 -0.3483,-0.1784 -0.34829,-0.1783 -0.45929,-0.1189 -0.45929,-0.1188 h -0.16403 -0.16402 l -1.0522,1.058 -1.05219,1.0579 -0.9723,1.0819 -0.9723,1.082 -0.74262,0.9066 -0.74262,0.9066 -0.75472,1.0169 -0.75472,1.0168 -0.49068,0.7199 -0.49067,0.7198 -0.0785,0.1454 -0.0785,0.1455 0.43441,0.1862 0.43441,0.1862 0.35713,0.3127 0.35714,0.3128 0.23208,0.3991 0.23208,0.3992 0.0399,0.01 0.0398,0.01 0.55067,-0.377 z m 9.62487,-7.6335 0.17981,-0.1131 0.13533,-0.2193 0.13533,-0.2193 0.10539,-0.3934 0.10539,-0.3933 -0.0754,-0.3769 -0.0754,-0.3768 -0.36152,-0.6208 -0.36151,-0.6207 -0.36743,-0.3384 -0.36743,-0.3383 -0.33378,-0.2207 -0.33379,-0.2206 -0.47712,-0.2051 -0.47712,-0.2051 -0.37879,-0.022 -0.37879,-0.022 -0.2495,0.053 -0.24951,0.053 -0.25162,0.1679 -0.25162,0.1679 -0.039,0.1456 -0.039,0.1456 0.0104,0.099 0.0104,0.099 0.18529,-0.035 0.18529,-0.035 0.44168,0.074 0.44168,0.074 0.44699,0.189 0.44698,0.189 0.30719,0.2192 0.30719,0.2192 0.3043,0.3468 0.30431,0.3468 0.21713,0.4925 0.21714,0.4926 0.098,0.4846 0.098,0.4847 0.0129,0.249 0.0129,0.249 0.0898,0.024 0.0898,0.024 z m 0.58534,-4.074 0.26886,-0.2179 0.66321,-0.5754 0.66321,-0.5754 0.0417,-0.022 0.0417,-0.022 0.34141,-0.3014 0.34142,-0.3015 0.088,-0.08 0.088,-0.08 0.192,-0.1725 0.19199,-0.1725 0.0858,-0.075 0.0858,-0.075 0.43424,-0.3933 0.43424,-0.3932 0.71318,-0.6745 0.71318,-0.6745 0.13861,-0.1265 0.13861,-0.1266 0.365,-0.3606 0.365,-0.3606 0.91673,-0.9003 0.91672,-0.9004 0.17744,-0.1816 0.17744,-0.1817 1.06084,-1.0909 1.06083,-1.0909 1.01104,-1.0715 1.01104,-1.0716 0.94093,-1.0248 0.94092,-1.0248 2.47571,-2.8073 2.47571,-2.8074 1.19632,-1.4147 1.19633,-1.4148 0.65045,-0.7753 0.65044,-0.7752 0.8209,-0.9915 0.82089,-0.9915 0.62366,-0.7671 0.62365,-0.767 0.008,-0.03 0.008,-0.03 -0.0609,-0.016 -0.0609,-0.016 -0.30315,0.1551 -0.30314,0.1551 0.0224,0.075 0.0224,0.074 -0.0604,-0.064 -0.0604,-0.064 -0.27595,0.1767 -0.27595,0.1766 -1.53529,1.2585 -1.53529,1.2585 -1.01838,0.8731 -1.01837,0.8731 -1.24887,1.106 -1.24887,1.1061 -0.47627,0.4289 -0.47629,0.4291 -1.17485,1.0931 -1.17487,1.0931 -1.19473,1.1532 -1.19473,1.1533 -0.98377,0.9806 -0.98378,0.9806 -0.62339,0.6188 -0.62339,0.6188 -1.67808,1.6131 -1.67808,1.6131 -1.20817,1.2152 -1.20817,1.2151 -1.04649,1.0948 -1.04649,1.0948 -0.29737,0.3132 -0.29738,0.3132 -1.10478,1.1997 -1.10479,1.1997 0.0159,0.02 0.0159,0.02 0.57982,0.3673 0.57981,0.3674 0.29481,0.2787 0.29481,0.2788 0.0984,0.1171 0.0984,0.1171 h 0.0656 0.0656 z"
         id="path9777"
         inkscape:connector-curvature="0"
         sodipodi:nodetypes="cccccccccccccccccccccccccccccccccccccccccccccccccccccccccccccccccccccccccccccccccccccccccccccccccccccccccccccccccccccccccccccccccccccccccccccccccccccccccccccccccccccccccccccccccccccccccccccccccccccccccccccccccccccccccccccccccccccccccccccccccccccccccccccccccccccccccccccccccccccccccccccccccccccccccccccccccccccccccccccccccccccccccccccccccccccccccccccccccccccccccccccccccccccccccccccccccccccccccccccccccccccccccccccccccccccccccccccccccc" />
      <path
         style="fill:#000000;stroke-width:0.06325313"
         d="m 328.86384,-1031.186 -0.0486,-0.1058 -0.0486,-0.1057 0.42518,-0.4777 0.42519,-0.4778 0.2122,-0.2901 0.2122,-0.2902 0.32068,-0.5689 0.32067,-0.5689 0.53173,-1.7893 0.53173,-1.7893 0.16139,-0.3424 0.16138,-0.3423 0.14076,-0.091 0.14076,-0.091 0.2076,-0.045 0.20759,-0.045 0.17568,0.053 0.17568,0.052 0.12497,0.2062 0.12497,0.2061 0.0439,0.2689 0.0439,0.2689 0.0741,0.02 0.0741,0.02 0.19256,-0.082 0.19256,-0.082 0.49031,-0.4385 0.49031,-0.4385 0.50725,-0.3558 0.50725,-0.3557 0.36561,-0.1502 0.36562,-0.1501 h 0.20133 0.20134 l 0.1901,0.1117 0.19011,0.1117 0.0292,0.1744 0.0292,0.1744 -0.0376,0.1403 -0.0376,0.1403 -0.20462,0.3035 -0.20461,0.3036 -0.28674,0.3129 -0.28674,0.313 -0.2791,0.4152 -0.2791,0.4151 -0.13668,0.3658 -0.13669,0.3658 -0.003,0.1721 -0.003,0.172 0.12676,0.1045 0.12676,0.1045 0.11412,-0.029 0.11411,-0.029 0.45072,-0.3971 0.45071,-0.3972 0.2261,-0.062 0.2261,-0.062 0.11523,0.074 0.11522,0.074 0.0856,0.1612 0.0856,0.1611 -0.0431,0.1562 -0.0431,0.1562 -0.43976,0.4715 -0.43976,0.4715 -0.42002,0.3786 -0.42002,0.3786 -1.05159,0.6058 -1.05158,0.6058 -0.84279,0.3348 -0.84279,0.3349 -0.92223,0.2647 -0.92224,0.2647 -0.75856,0.1427 -0.75856,0.1427 z m 3.42914,-3.115 0.33055,-0.1669 1.13238,-0.7168 1.13238,-0.7168 0.23637,-0.1751 0.23636,-0.175 0.1238,-0.2981 0.12381,-0.2981 0.32515,-0.4741 0.32516,-0.4742 0.37886,-0.4243 0.37885,-0.4243 0.0946,-0.2269 0.0946,-0.2269 -0.0855,-0.062 -0.0855,-0.062 -0.24626,0.045 -0.24626,0.045 -0.57914,0.3584 -0.57913,0.3583 -0.56894,0.4992 -0.56894,0.4992 -0.30157,0.1543 -0.30157,0.1543 -0.20419,-0.055 -0.2042,-0.055 -0.0654,-0.1322 -0.0653,-0.1321 -0.0583,-0.2819 -0.0583,-0.2819 -0.0734,-0.1037 -0.0734,-0.1036 -0.25126,0.075 -0.25127,0.075 -0.021,0.071 -0.021,0.071 -0.18427,0.4418 -0.18426,0.4418 -0.33222,1.2444 -0.33222,1.2445 -0.17595,0.4131 -0.17596,0.4131 -0.0796,0.1495 -0.0796,0.1495 0.60525,-0.3355 0.60525,-0.3354 0.33055,-0.1669 z m 8.03443,-6.8905 -0.0564,-0.068 -0.034,-0.2547 -0.034,-0.2546 -0.1105,-0.269 -0.1105,-0.269 -0.21535,-0.1771 -0.21535,-0.1771 -0.35912,-0.098 -0.35913,-0.098 -0.25729,0.01 -0.25728,0.01 -0.0463,-0.08 -0.0463,-0.08 0.0386,-0.4178 0.0386,-0.4178 0.14857,-0.2408 0.14857,-0.2407 0.24108,-0.1291 0.24108,-0.1292 0.21466,-0.029 0.21465,-0.029 0.16581,-0.2355 0.16581,-0.2355 0.60293,-0.8814 0.60292,-0.8813 0.51207,-0.6862 0.51208,-0.6862 0.47641,-0.5988 0.47642,-0.5987 0.73978,-0.8762 0.73978,-0.8762 0.87775,-0.9435 0.87774,-0.9436 0.69118,-0.6928 0.69117,-0.6929 -0.0646,-0.2197 -0.0646,-0.2197 0.0702,-0.2628 0.0702,-0.2628 0.1304,-0.1419 0.1304,-0.1418 0.21757,-0.1181 0.21757,-0.1181 0.37705,-0.063 0.37706,-0.063 0.43575,0.046 0.43575,0.046 0.58603,0.2956 0.58603,0.2956 0.49763,0.4207 0.49762,0.4207 0.29655,0.4035 0.29655,0.4035 0.1837,0.3329 0.1837,0.3328 0.0923,0.4444 0.0923,0.4444 -0.0829,0.43 -0.0829,0.43 -0.21196,0.3412 -0.21195,0.3413 -0.24844,0.1533 -0.24845,0.1533 -0.23761,-0.062 -0.23761,-0.062 -0.93133,0.9097 -0.93134,0.9097 -1.01882,0.9307 -1.01881,0.9306 -0.65194,0.5549 -0.65193,0.5549 -0.75741,0.6157 -0.7574,0.6156 -0.94522,0.6962 -0.94523,0.6963 -0.49126,0.3267 -0.49127,0.3268 -0.12419,0.4589 -0.1242,0.4588 -0.17087,0.1824 -0.17088,0.1824 -0.22221,0.061 -0.22221,0.061 -0.35844,-0.066 -0.35844,-0.066 -0.0564,-0.068 z m 0.87714,-0.2073 0.19544,-0.043 0.1209,-0.1575 0.1209,-0.1576 0.0698,-0.2467 0.0698,-0.2467 -0.0718,-0.2809 -0.0718,-0.2808 -0.31745,-0.3961 -0.31744,-0.3961 -0.30731,-0.2346 -0.30731,-0.2346 -0.38025,-0.1034 -0.38026,-0.1033 -0.27283,0.032 -0.27284,0.033 -0.16709,0.138 -0.16709,0.1379 -0.0921,0.3436 -0.0921,0.3436 0.39444,0.063 0.39443,0.064 0.33105,0.1667 0.33106,0.1667 0.20587,0.2652 0.20587,0.2653 0.11355,0.4047 0.11355,0.4048 0.17776,0.048 0.17775,0.048 0.19544,-0.043 z m 1.44087,-1.7787 0.55067,-0.3771 0.61898,-0.4555 0.61897,-0.4555 0.83254,-0.661 0.83253,-0.6609 0.7597,-0.6478 0.75969,-0.6477 0.91721,-0.8348 0.9172,-0.8347 1.03141,-1.0006 1.0314,-1.0006 0.004,-0.1625 0.004,-0.1626 -0.11984,-0.6295 -0.11984,-0.6294 -0.2582,-0.4541 -0.25819,-0.4541 -0.33757,-0.3141 -0.33757,-0.3142 -0.3483,-0.1784 -0.34829,-0.1783 -0.45929,-0.1189 -0.45929,-0.1188 h -0.16403 -0.16402 l -1.0522,1.058 -1.05219,1.0579 -0.9723,1.0819 -0.9723,1.082 -0.74262,0.9066 -0.74262,0.9066 -0.75472,1.0169 -0.75472,1.0168 -0.49068,0.7199 -0.49067,0.7198 -0.0785,0.1454 -0.0785,0.1455 0.43441,0.1862 0.43441,0.1862 0.35713,0.3127 0.35714,0.3128 0.23208,0.3991 0.23208,0.3992 0.0399,0.01 0.0398,0.01 0.55067,-0.377 z m 9.62487,-7.6335 0.17981,-0.1131 0.13533,-0.2193 0.13533,-0.2193 0.10539,-0.3934 0.10539,-0.3933 -0.0754,-0.3769 -0.0754,-0.3768 -0.36152,-0.6208 -0.36151,-0.6207 -0.36743,-0.3384 -0.36743,-0.3383 -0.33378,-0.2207 -0.33379,-0.2206 -0.47712,-0.2051 -0.47712,-0.2051 -0.37879,-0.022 -0.37879,-0.022 -0.2495,0.053 -0.24951,0.053 -0.25162,0.1679 -0.25162,0.1679 -0.039,0.1456 -0.039,0.1456 0.0104,0.099 0.0104,0.099 0.18529,-0.035 0.18529,-0.035 0.44168,0.074 0.44168,0.074 0.44699,0.189 0.44698,0.189 0.30719,0.2192 0.30719,0.2192 0.3043,0.3468 0.30431,0.3468 0.21713,0.4925 0.21714,0.4926 0.098,0.4846 0.098,0.4847 0.0129,0.249 0.0129,0.249 0.0898,0.024 0.0898,0.024 z"
         id="path9775"
         inkscape:connector-curvature="0"
         sodipodi:nodetypes="ccccccccccccccccccccccccccccccccccccccccccccccccccccccccccccccccccccccccccccccccccccccccccccccccccccccccccccccccccccccccccccccccccccccccccccccccccccccccccccccccccccccccccccccccccccccccccccccccccccccccccccccccccccccccccccccccccccccccccccccccccccccccccccccccccccccccccccccccccccccccccccccccccccccccccccccccccccccccccccccccccccccccccccccccccc" />
      <path
         inkscape:connector-curvature="0"
         id="path9835"
         d="m 339.90104,-1043.1428 0.15625,-0.073 0.10745,-0.2448 0.10744,-0.2449 -0.115,-0.1992 -0.11499,-0.1991 -0.092,-0.025 -0.0921,-0.025 -0.1623,0.1015 -0.1623,0.1016 -0.13583,0.2201 -0.13583,0.2201 0.12945,0.1898 0.12946,0.1898 0.11202,0.03 0.11202,0.03 z"
         style="fill:#f2f2f2;stroke-width:0.06325313" />
      <path
         inkscape:connector-curvature="0"
         id="path9833"
         d="m 341.37108,-1044.3533 0.12289,-0.1144 0.53421,-0.8237 0.53421,-0.8236 0.53408,-0.56 0.53408,-0.5599 0.60021,-0.6905 0.60021,-0.6905 0.71979,-0.9203 0.71979,-0.9204 0.50147,-0.6187 0.50148,-0.6187 0.92134,-0.8867 0.92135,-0.8867 -0.014,-0.1731 -0.014,-0.1731 -0.0856,-0.092 -0.0856,-0.092 -0.19147,0.044 -0.19147,0.044 -0.39926,0.3187 -0.39926,0.3187 -0.46189,0.4778 -0.4619,0.4778 -0.51909,0.6345 -0.51909,0.6345 -0.53701,0.6747 -0.53701,0.6747 -0.18876,0.2441 -0.18876,0.2441 -1.19251,1.3503 -1.19252,1.3503 -0.52354,0.6767 -0.52355,0.6767 -0.0648,0.2418 -0.0648,0.2419 0.12658,0.1855 0.12657,0.1856 0.11738,0.032 0.11738,0.031 z"
         style="fill:#f2f2f2;stroke-width:0.06325313" />
      <path
         inkscape:connector-curvature="0"
         id="path9829"
         d="m 349.67895,-1054.7901 0.19138,-0.1204 0.0971,-0.2024 0.0971,-0.2023 -0.0701,-0.076 -0.0701,-0.076 -0.14,-0.039 -0.14,-0.038 -0.19015,0.1098 -0.19015,0.1097 -0.0489,0.1826 -0.0489,0.1827 0.1103,0.1314 0.11031,0.1315 0.0504,0.014 0.0504,0.014 0.19138,-0.1204 z"
         style="fill:#f2f2f2;stroke-width:0.06325313" />
    </g>
  </g>
</svg>
