<?xml version="1.0" encoding="UTF-8" standalone="no"?>
<!-- Created with Inkscape (http://www.inkscape.org/) -->

<svg
   xmlns:dc="http://purl.org/dc/elements/1.1/"
   xmlns:cc="http://creativecommons.org/ns#"
   xmlns:rdf="http://www.w3.org/1999/02/22-rdf-syntax-ns#"
   xmlns:svg="http://www.w3.org/2000/svg"
   xmlns="http://www.w3.org/2000/svg"
   xmlns:sodipodi="http://sodipodi.sourceforge.net/DTD/sodipodi-0.dtd"
   xmlns:inkscape="http://www.inkscape.org/namespaces/inkscape"
   width="300"
   height="132.5"
   viewBox="0 0 79.375026 35.057296"
   version="1.1"
   id="svg6298"
   inkscape:version="0.92.4 (5da689c313, 2019-01-14)"
   sodipodi:docname="exercise.svg">
  <defs
     id="defs6292" />
  <sodipodi:namedview
     id="base"
     pagecolor="#ffffff"
     bordercolor="#666666"
     borderopacity="1.0"
     inkscape:pageopacity="0.0"
     inkscape:pageshadow="2"
     inkscape:zoom="0.49497475"
     inkscape:cx="172.07412"
     inkscape:cy="136.12885"
     inkscape:document-units="mm"
     inkscape:current-layer="layer1"
     showgrid="false"
     units="px"
     inkscape:window-width="957"
     inkscape:window-height="492"
     inkscape:window-x="954"
     inkscape:window-y="524"
     inkscape:window-maximized="1" />
  <metadata
     id="metadata6295">
    <rdf:RDF>
      <cc:Work
         rdf:about="">
        <dc:format>image/svg+xml</dc:format>
        <dc:type
           rdf:resource="http://purl.org/dc/dcmitype/StillImage" />
        <dc:title></dc:title>
      </cc:Work>
    </rdf:RDF>
  </metadata>
  <g
     inkscape:label="Layer 1"
     inkscape:groupmode="layer"
     id="layer1"
     transform="translate(0,-261.9426)">
    <path
       style="opacity:0.95999995;fill:#0000ff;stroke-width:0.23841618"
       d="m 2.9855983,294.86805 -1.0268857,-0.78404 -0.3789505,-0.78242 -0.3789474,-0.78252 0.2124065,-0.39685 0.2124172,-0.39693 0.7535166,-0.15059 0.7535196,-0.15074 h 0.697505 0.6975158 l 1.930832,-0.76296 1.9308381,-0.76297 -0.5720043,-0.17192 -0.5720103,-0.17193 -1.1222032,-0.15105 -1.1222031,-0.15104 -0.5432915,-0.43993 -0.5433007,-0.44001 0.025598,-0.97571 0.025598,-0.9758 0.2723673,-0.32818 0.2723734,-0.32818 1.7751585,-0.11398 1.7751676,-0.11397 2.8429508,-1.69993 2.842917,-1.69992 1.946243,-2.99453 1.946214,-2.99455 0.698298,-1.36201 0.698301,-1.36192 2.005767,-4.18687 2.005796,-4.18679 0.829472,-0.87957 0.8295,-0.87947 1.402337,1.8e-4 1.402337,1.9e-4 1.430497,0.67951 1.430497,0.67944 4.887534,5.27036 4.887534,5.27026 0.834454,1.65883 0.834456,1.65875 0.476835,0.5248 0.476835,0.52471 0.552384,0.21123 0.552366,0.21122 2.876205,0.59588 2.876173,0.5959 h 1.254045 1.254043 l 2.243335,-0.58292 2.243308,-0.58284 2.619426,-0.93444 2.619411,-0.93434 0.781956,-0.40441 0.781957,-0.40432 -0.158233,-0.72043 -0.158261,-0.72053 0.533426,-0.56779 0.533432,-0.56777 0.187565,-3.09115 0.187563,-3.09113 0.255634,-0.47767 0.255624,-0.47767 1.060785,-0.86921 1.060766,-0.86919 1.537467,0.85973 1.537457,0.85983 0.94804,-0.15151 0.948056,-0.15166 2.11218,0.98985 2.112198,0.98977 0.544923,0.51192 0.544921,0.512 0.35334,1.18974 0.353303,1.18971 v 0.71061 0.71069 l -0.607863,1.03717 -0.607865,1.03726 -0.551527,1.4871 -0.551553,1.48707 -0.148045,2.53741 -0.148029,2.53732 -0.221943,0.58373 -0.221967,0.58383 -1.214396,0.77927 -1.21442,0.77927 -0.150418,0.62952 -0.150419,0.62951 -0.640484,1.43049 -0.640484,1.4305 -1.174008,0.63023 -1.174008,0.63022 -2.319072,0.86173 -2.319056,0.86172 -4.833431,0.3471 -4.833413,0.34701 -5.712424,0.27529 -5.712401,0.27519 -1.680886,-0.10785 -1.680904,-0.10784 -1.615672,-0.77108 -1.615683,-0.77107 -1.529293,-1.43058 -1.529321,-1.4306 -3.130451,-3.68063 -3.13045,-3.68063 0.734677,-0.99906 0.734659,-0.99896 -0.0063,-0.25104 -0.0063,-0.25105 -1.04043,-1.63748 -1.04042,-1.63739 -1.196634,1.77327 -1.196607,1.77336 -1.44733,1.77139 -1.447329,1.77148 -1.19549,1.42392 -1.195518,1.42401 -0.636952,1.21648 -0.636951,1.21658 0.397078,1.58081 0.397088,1.58078 v 0.9559 0.95589 l -0.536442,0.30258 -0.536435,0.30249 -6.62318,0.0316 -6.6231618,0.0316 z"
       id="path9480"
       inkscape:connector-curvature="0" />
  </g>
</svg>
