<?xml version="1.0" encoding="UTF-8" standalone="no"?>
<!-- Created with Inkscape (http://www.inkscape.org/) -->

<svg
   xmlns:dc="http://purl.org/dc/elements/1.1/"
   xmlns:cc="http://creativecommons.org/ns#"
   xmlns:rdf="http://www.w3.org/1999/02/22-rdf-syntax-ns#"
   xmlns:svg="http://www.w3.org/2000/svg"
   xmlns="http://www.w3.org/2000/svg"
   xmlns:sodipodi="http://sodipodi.sourceforge.net/DTD/sodipodi-0.dtd"
   xmlns:inkscape="http://www.inkscape.org/namespaces/inkscape"
   width="290"
   height="210"
   viewBox="0 0 76.729193 55.562507"
   version="1.1"
   id="svg6298"
   inkscape:version="0.92.4 (5da689c313, 2019-01-14)"
   sodipodi:docname="indecision.svg">
  <defs
     id="defs6292">
    <filter
       inkscape:collect="always"
       style="color-interpolation-filters:sRGB"
       id="filter1600"
       x="-0.0069655171"
       width="1.013931"
       y="-0.04328572"
       height="1.0865715">
      <feGaussianBlur
         inkscape:collect="always"
         stdDeviation="0.29842752"
         id="feGaussianBlur1602" />
    </filter>
    <filter
       inkscape:collect="always"
       style="color-interpolation-filters:sRGB"
       id="filter1658"
       x="-0.02089655"
       width="1.0417931"
       y="-0.12985715"
       height="1.2597142">
      <feGaussianBlur
         inkscape:collect="always"
         stdDeviation="0.89528256"
         id="feGaussianBlur1660" />
    </filter>
  </defs>
  <sodipodi:namedview
     id="base"
     pagecolor="#ffffff"
     bordercolor="#666666"
     borderopacity="1.0"
     inkscape:pageopacity="0.0"
     inkscape:pageshadow="2"
     inkscape:zoom="0.41460779"
     inkscape:cx="35.765034"
     inkscape:cy="132.04729"
     inkscape:document-units="mm"
     inkscape:current-layer="layer1"
     showgrid="false"
     units="px"
     inkscape:window-width="957"
     inkscape:window-height="492"
     inkscape:window-x="954"
     inkscape:window-y="524"
     inkscape:window-maximized="0" />
  <metadata
     id="metadata6295">
    <rdf:RDF>
      <cc:Work
         rdf:about="">
        <dc:format>image/svg+xml</dc:format>
        <dc:type
           rdf:resource="http://purl.org/dc/dcmitype/StillImage" />
        <dc:title />
      </cc:Work>
    </rdf:RDF>
  </metadata>
  <g
     inkscape:label="Layer 1"
     inkscape:groupmode="layer"
     id="layer1"
     transform="translate(0,-241.43741)">
    <path
       transform="matrix(0.832365,0,0,0.832365,-9.6150951,85.39736)"
       style="opacity:1;fill:#f9f9f9;fill-opacity:1;fill-rule:nonzero;stroke:#4d4d4d;stroke-width:1.27288282;stroke-linecap:round;stroke-linejoin:round;stroke-miterlimit:4;stroke-dasharray:none;stroke-dashoffset:0;stroke-opacity:1;paint-order:markers fill stroke;filter:url(#filter1658)"
       d="m 23.58774,223.80104 h 23.45599 v 16.54648 H 23.58774 Z"
       id="rect1604" />
    <g
       aria-label="Option
A"
       transform="matrix(0.38751216,0,0,0.38751216,-93.445039,91.869889)"
       style="font-style:normal;font-variant:normal;font-weight:normal;font-stretch:normal;font-size:8px;line-height:1.25;font-family:'OCR A Extended';-inkscape-font-specification:'OCR A Extended, Normal';font-variant-ligatures:normal;font-variant-caps:normal;font-variant-numeric:normal;font-feature-settings:normal;text-align:center;letter-spacing:0px;word-spacing:0px;writing-mode:lr-tb;text-anchor:middle;fill:#000000;fill-opacity:1;stroke:none;filter:url(#filter1658)"
       id="flowRoot1614">
      <path
         d="m 280.89648,470.94133 0.72266,1.47266 q 0.15234,0.30078 0.15234,0.65234 0,0.34375 -0.15234,0.64844 l -0.72266,1.45703 q -0.23046,0.48047 -0.78125,0.48047 -0.26171,0 -0.47265,-0.13672 -0.20703,-0.13672 -0.3125,-0.34375 l -0.72656,-1.45703 q -0.14454,-0.28516 -0.14454,-0.64844 0,-0.36328 0.14454,-0.65234 l 0.72656,-1.47266 q 0.24609,-0.48047 0.78515,-0.48047 0.54688,0 0.78125,0.48047 z m -1,0.32813 -0.67968,1.38281 q -0.0937,0.20703 -0.0937,0.40625 0,0.21484 0.0937,0.41016 l 0.69922,1.39843 q 0.0547,0.12891 0.19921,0.12891 0.125,0 0.19141,-0.12891 l 0.70313,-1.39843 q 0.0976,-0.20703 0.0976,-0.41016 0,-0.21484 -0.0976,-0.40625 l -0.6875,-1.38281 q -0.0664,-0.15235 -0.20704,-0.15235 -0.14062,0 -0.21875,0.15235 z"
         style=""
         id="path10915" />
      <path
         d="m 283.95898,475.27727 v 1.45313 q 0,0.14062 -0.0976,0.23828 -0.0937,0.0976 -0.23047,0.0976 -0.13672,0 -0.23828,-0.0976 -0.0977,-0.0977 -0.0977,-0.23828 v -4.67969 q 0,-0.13281 0.0977,-0.23047 0.0976,-0.0977 0.23828,-0.0977 0.13281,0 0.23047,0.0977 0.0976,0.0977 0.0976,0.23047 v 0.21094 q 0.47657,-0.53125 0.94141,-0.53125 h 0.15234 q 0.34766,0 0.64063,0.25781 l 0.54687,0.47265 q 0.35938,0.3125 0.35938,0.79297 v 1.02344 q 0,0.48438 -0.38672,0.81641 l -0.53516,0.46093 q -0.26562,0.24219 -0.67187,0.24219 h -0.14453 q -0.38281,0 -0.64844,-0.26562 z m 0.92579,-0.14453 h 0.16796 q 0.1211,0 0.25782,-0.12109 l 0.51172,-0.44922 q 0.1289,-0.10157 0.1289,-0.27735 v -1.05859 q 0,-0.15625 -0.14453,-0.27734 l -0.55078,-0.47266 q -0.0937,-0.082 -0.20313,-0.082 h -0.1914 q -0.10938,0 -0.28516,0.17969 l -0.48828,0.48437 q -0.12891,0.12891 -0.12891,0.28906 v 0.83985 q 0,0.15234 0.14454,0.29687 l 0.47265,0.47266 q 0.17578,0.17578 0.3086,0.17578 z"
         style=""
         id="path10917" />
      <path
         d="m 290.42773,475.65227 h -0.65625 q -0.40625,0 -0.69921,-0.28906 -0.29297,-0.28906 -0.29297,-0.69531 v -2.12891 h -0.33594 q -0.13672,0 -0.23438,-0.0937 -0.0937,-0.0937 -0.0937,-0.23438 0,-0.13671 0.0937,-0.23046 0.0977,-0.0977 0.23438,-0.0977 h 0.34375 v -0.80469 q 0,-0.13672 0.0937,-0.23047 0.0977,-0.0976 0.23437,-0.0976 0.12891,0 0.22657,0.0976 0.10156,0.0977 0.10156,0.23047 v 0.80469 h 1.32031 q 0.13281,0 0.23047,0.0977 0.0977,0.0977 0.0977,0.23046 0,0.13672 -0.0977,0.23438 -0.0977,0.0937 -0.23047,0.0937 h -1.32812 v 2.12891 q 0,0.13281 0.0977,0.23046 0.10157,0.0977 0.23828,0.0977 h 0.64063 q 0.26172,0 0.34766,-0.28125 0.0859,-0.28516 0.33203,-0.28516 0.14453,0 0.23437,0.0977 0.0937,0.0937 0.0937,0.23828 0,0.29688 -0.28125,0.59375 -0.27734,0.29297 -0.71094,0.29297 z"
         style=""
         id="path10919" />
      <path
         d="m 294.26367,470.1718 h 0.34375 q 0.13672,0 0.23047,0.0977 0.0977,0.0937 0.0977,0.23047 v 0.28125 q 0,0.13672 -0.0977,0.23828 -0.0937,0.0977 -0.23047,0.0977 h -0.35156 q -0.14063,0 -0.23828,-0.10156 -0.0937,-0.10156 -0.0899,-0.22656 l 0.008,-0.28906 q 0,-0.13672 0.0937,-0.23047 0.0977,-0.0977 0.23437,-0.0977 z m 1.33594,5.47266 h -2 q -0.13672,0 -0.23438,-0.0937 -0.0937,-0.0977 -0.0937,-0.23438 0,-0.13281 0.0937,-0.23047 0.0977,-0.0977 0.23438,-0.0977 h 0.67187 v -2.44922 h -0.66406 q -0.13672,0 -0.23437,-0.0977 -0.0937,-0.0976 -0.0937,-0.23047 0,-0.13671 0.0937,-0.23437 0.0977,-0.10156 0.23437,-0.10156 h 1 q 0.13672,0 0.23047,0.10156 0.0977,0.0977 0.0977,0.23437 v 2.77735 h 0.65625 q 0.13672,0 0.23437,0.0977 0.10156,0.0937 0.10156,0.23047 0,0.13672 -0.0976,0.23438 -0.0977,0.0937 -0.23047,0.0937 z"
         style=""
         id="path10921" />
      <path
         d="m 301.08398,473.06633 v 1.38672 q 0,0.44141 -0.41796,0.81641 -0.41407,0.375 -0.85547,0.375 h -0.76953 q -0.44922,0 -0.85938,-0.37891 -0.41016,-0.38281 -0.41016,-0.8125 v -1.38672 q 0,-0.42968 0.39844,-0.80859 0.40235,-0.38281 0.8711,-0.38281 h 0.76953 q 0.4414,-0.008 0.85547,0.36718 0.41796,0.375 0.41796,0.82422 z m -2.64843,0.0274 v 1.32812 q 0,0.17969 0.1289,0.28516 l 0.2461,0.21094 q 0.082,0.0703 0.23047,0.0703 h 0.76171 q 0.16797,0 0.30469,-0.1211 l 0.19922,-0.17578 q 0.12109,-0.0937 0.12109,-0.26172 v -1.32812 q 0,-0.19531 -0.12109,-0.28906 l -0.23047,-0.1836 q -0.11719,-0.0976 -0.27344,-0.0976 h -0.67968 q -0.22266,0 -0.34375,0.10547 l -0.22266,0.1914 q -0.12109,0.10156 -0.12109,0.26563 z"
         style=""
         id="path10923" />
      <path
         d="m 304.1582,472.64446 -0.89453,0.58203 v 2.09766 q 0,0.13281 -0.0976,0.23046 -0.0977,0.0977 -0.23047,0.0977 -0.13282,0 -0.23047,-0.0977 -0.0977,-0.0977 -0.0977,-0.23046 v -3.11329 q 0,-0.13671 0.0937,-0.23437 0.0977,-0.10156 0.23438,-0.10156 0.13281,0 0.23047,0.10156 0.0976,0.0977 0.0976,0.23437 v 0.21875 l 0.59766,-0.36328 q 0.30078,-0.1914 0.67969,-0.1914 h 0.30468 q 0.39063,0 0.67578,0.27734 0.28516,0.27734 0.30079,0.68359 l 0.0898,2.48829 q 0.004,0.13281 -0.0937,0.23046 -0.0977,0.0977 -0.23438,0.0977 -0.1289,0 -0.22656,-0.0859 -0.0976,-0.0898 -0.10156,-0.24218 l -0.0977,-2.44922 q -0.0117,-0.34375 -0.35937,-0.34375 h -0.32031 q -0.14844,0 -0.32032,0.11328 z"
         style=""
         id="path10925" />
      <path
         d="m 288.87226,492.45751 2.73869,-9.25517 q 0.1611,-0.50746 0.67662,-0.50746 0.49941,0 0.62829,0.42691 l 2.69841,9.40016 q 0.0322,0.10472 0.0322,0.20138 0,0.28192 -0.19332,0.48329 -0.19332,0.19332 -0.44302,0.19332 -0.53163,0 -0.67662,-0.49135 l -0.54774,-1.83654 h -3.08505 l -0.59607,1.96542 q -0.0242,0.12888 -0.20138,0.2497 -0.17721,0.11277 -0.38663,0.11277 -0.29804,0 -0.49136,-0.20137 -0.19332,-0.20138 -0.19332,-0.49135 0,-0.12083 0.0403,-0.24971 z m 3.3992,-6.62925 -1.15992,3.87445 h 2.27956 z"
         style="font-size:16.49659538px"
         id="path10927" />
    </g>
    <path
       transform="matrix(0.832365,0,0,0.832365,-9.6150951,85.39736)"
       style="opacity:1;fill:#f9f9f9;fill-opacity:1;fill-rule:nonzero;stroke:#4d4d4d;stroke-width:1.27288282;stroke-linecap:round;stroke-linejoin:round;stroke-miterlimit:4;stroke-dasharray:none;stroke-dashoffset:0;stroke-opacity:1;paint-order:markers fill stroke;filter:url(#filter1658)"
       d="m 50.043919,223.80104 h 23.455989 v 16.54648 H 50.043919 Z"
       id="rect1616" />
    <g
       aria-label="Option
B"
       transform="matrix(0.38751216,0,0,0.38751216,-71.423831,91.869889)"
       style="font-style:normal;font-variant:normal;font-weight:normal;font-stretch:normal;font-size:8px;line-height:1.25;font-family:'OCR A Extended';-inkscape-font-specification:'OCR A Extended, Normal';font-variant-ligatures:normal;font-variant-caps:normal;font-variant-numeric:normal;font-feature-settings:normal;text-align:center;letter-spacing:0px;word-spacing:0px;writing-mode:lr-tb;text-anchor:middle;fill:#000000;fill-opacity:1;stroke:none;filter:url(#filter1658)"
       id="flowRoot1626">
      <path
         d="m 280.89648,470.94133 0.72266,1.47266 q 0.15234,0.30078 0.15234,0.65234 0,0.34375 -0.15234,0.64844 l -0.72266,1.45703 q -0.23046,0.48047 -0.78125,0.48047 -0.26171,0 -0.47265,-0.13672 -0.20703,-0.13672 -0.3125,-0.34375 l -0.72656,-1.45703 q -0.14454,-0.28516 -0.14454,-0.64844 0,-0.36328 0.14454,-0.65234 l 0.72656,-1.47266 q 0.24609,-0.48047 0.78515,-0.48047 0.54688,0 0.78125,0.48047 z m -1,0.32813 -0.67968,1.38281 q -0.0937,0.20703 -0.0937,0.40625 0,0.21484 0.0937,0.41016 l 0.69922,1.39843 q 0.0547,0.12891 0.19921,0.12891 0.125,0 0.19141,-0.12891 l 0.70313,-1.39843 q 0.0976,-0.20703 0.0976,-0.41016 0,-0.21484 -0.0976,-0.40625 l -0.6875,-1.38281 q -0.0664,-0.15235 -0.20704,-0.15235 -0.14062,0 -0.21875,0.15235 z"
         style=""
         id="path10899" />
      <path
         d="m 283.95898,475.27727 v 1.45313 q 0,0.14062 -0.0976,0.23828 -0.0937,0.0976 -0.23047,0.0976 -0.13672,0 -0.23828,-0.0976 -0.0977,-0.0977 -0.0977,-0.23828 v -4.67969 q 0,-0.13281 0.0977,-0.23047 0.0976,-0.0977 0.23828,-0.0977 0.13281,0 0.23047,0.0977 0.0976,0.0977 0.0976,0.23047 v 0.21094 q 0.47657,-0.53125 0.94141,-0.53125 h 0.15234 q 0.34766,0 0.64063,0.25781 l 0.54687,0.47265 q 0.35938,0.3125 0.35938,0.79297 v 1.02344 q 0,0.48438 -0.38672,0.81641 l -0.53516,0.46093 q -0.26562,0.24219 -0.67187,0.24219 h -0.14453 q -0.38281,0 -0.64844,-0.26562 z m 0.92579,-0.14453 h 0.16796 q 0.1211,0 0.25782,-0.12109 l 0.51172,-0.44922 q 0.1289,-0.10157 0.1289,-0.27735 v -1.05859 q 0,-0.15625 -0.14453,-0.27734 l -0.55078,-0.47266 q -0.0937,-0.082 -0.20313,-0.082 h -0.1914 q -0.10938,0 -0.28516,0.17969 l -0.48828,0.48437 q -0.12891,0.12891 -0.12891,0.28906 v 0.83985 q 0,0.15234 0.14454,0.29687 l 0.47265,0.47266 q 0.17578,0.17578 0.3086,0.17578 z"
         style=""
         id="path10901" />
      <path
         d="m 290.42773,475.65227 h -0.65625 q -0.40625,0 -0.69921,-0.28906 -0.29297,-0.28906 -0.29297,-0.69531 v -2.12891 h -0.33594 q -0.13672,0 -0.23438,-0.0937 -0.0937,-0.0937 -0.0937,-0.23438 0,-0.13671 0.0937,-0.23046 0.0977,-0.0977 0.23438,-0.0977 h 0.34375 v -0.80469 q 0,-0.13672 0.0937,-0.23047 0.0977,-0.0976 0.23437,-0.0976 0.12891,0 0.22657,0.0976 0.10156,0.0977 0.10156,0.23047 v 0.80469 h 1.32031 q 0.13281,0 0.23047,0.0977 0.0977,0.0977 0.0977,0.23046 0,0.13672 -0.0977,0.23438 -0.0977,0.0937 -0.23047,0.0937 h -1.32812 v 2.12891 q 0,0.13281 0.0977,0.23046 0.10157,0.0977 0.23828,0.0977 h 0.64063 q 0.26172,0 0.34766,-0.28125 0.0859,-0.28516 0.33203,-0.28516 0.14453,0 0.23437,0.0977 0.0937,0.0937 0.0937,0.23828 0,0.29688 -0.28125,0.59375 -0.27734,0.29297 -0.71094,0.29297 z"
         style=""
         id="path10903" />
      <path
         d="m 294.26367,470.1718 h 0.34375 q 0.13672,0 0.23047,0.0977 0.0977,0.0937 0.0977,0.23047 v 0.28125 q 0,0.13672 -0.0977,0.23828 -0.0937,0.0977 -0.23047,0.0977 h -0.35156 q -0.14063,0 -0.23828,-0.10156 -0.0937,-0.10156 -0.0899,-0.22656 l 0.008,-0.28906 q 0,-0.13672 0.0937,-0.23047 0.0977,-0.0977 0.23437,-0.0977 z m 1.33594,5.47266 h -2 q -0.13672,0 -0.23438,-0.0937 -0.0937,-0.0977 -0.0937,-0.23438 0,-0.13281 0.0937,-0.23047 0.0977,-0.0977 0.23438,-0.0977 h 0.67187 v -2.44922 h -0.66406 q -0.13672,0 -0.23437,-0.0977 -0.0937,-0.0976 -0.0937,-0.23047 0,-0.13671 0.0937,-0.23437 0.0977,-0.10156 0.23437,-0.10156 h 1 q 0.13672,0 0.23047,0.10156 0.0977,0.0977 0.0977,0.23437 v 2.77735 h 0.65625 q 0.13672,0 0.23437,0.0977 0.10156,0.0937 0.10156,0.23047 0,0.13672 -0.0976,0.23438 -0.0977,0.0937 -0.23047,0.0937 z"
         style=""
         id="path10905" />
      <path
         d="m 301.08398,473.06633 v 1.38672 q 0,0.44141 -0.41796,0.81641 -0.41407,0.375 -0.85547,0.375 h -0.76953 q -0.44922,0 -0.85938,-0.37891 -0.41016,-0.38281 -0.41016,-0.8125 v -1.38672 q 0,-0.42968 0.39844,-0.80859 0.40235,-0.38281 0.8711,-0.38281 h 0.76953 q 0.4414,-0.008 0.85547,0.36718 0.41796,0.375 0.41796,0.82422 z m -2.64843,0.0274 v 1.32812 q 0,0.17969 0.1289,0.28516 l 0.2461,0.21094 q 0.082,0.0703 0.23047,0.0703 h 0.76171 q 0.16797,0 0.30469,-0.1211 l 0.19922,-0.17578 q 0.12109,-0.0937 0.12109,-0.26172 v -1.32812 q 0,-0.19531 -0.12109,-0.28906 l -0.23047,-0.1836 q -0.11719,-0.0976 -0.27344,-0.0976 h -0.67968 q -0.22266,0 -0.34375,0.10547 l -0.22266,0.1914 q -0.12109,0.10156 -0.12109,0.26563 z"
         style=""
         id="path10907" />
      <path
         d="m 304.1582,472.64446 -0.89453,0.58203 v 2.09766 q 0,0.13281 -0.0976,0.23046 -0.0977,0.0977 -0.23047,0.0977 -0.13282,0 -0.23047,-0.0977 -0.0977,-0.0977 -0.0977,-0.23046 v -3.11329 q 0,-0.13671 0.0937,-0.23437 0.0977,-0.10156 0.23438,-0.10156 0.13281,0 0.23047,0.10156 0.0976,0.0977 0.0976,0.23437 v 0.21875 l 0.59766,-0.36328 q 0.30078,-0.1914 0.67969,-0.1914 h 0.30468 q 0.39063,0 0.67578,0.27734 0.28516,0.27734 0.30079,0.68359 l 0.0898,2.48829 q 0.004,0.13281 -0.0937,0.23046 -0.0977,0.0977 -0.23438,0.0977 -0.1289,0 -0.22656,-0.0859 -0.0976,-0.0898 -0.10156,-0.24218 l -0.0977,-2.44922 q -0.0117,-0.34375 -0.35937,-0.34375 h -0.32031 q -0.14844,0 -0.32032,0.11328 z"
         style=""
         id="path10909" />
      <path
         d="m 295.64649,490.08129 v 0.59607 q 0,1.11964 -0.79744,1.92514 -0.78939,0.79744 -1.90903,0.79744 h -4.14026 v -10.70506 h 4.14026 q 1.11964,0 1.90903,0.79744 0.79744,0.79744 0.79744,1.92514 v 0.5719 q 0,1.2002 -0.92632,2.04597 0.92632,0.86188 0.92632,2.04596 z m -1.38545,-4.10804 v -0.55579 q 0,-0.56385 -0.40275,-0.9666 -0.3947,-0.40275 -0.95049,-0.40275 h -2.7548 v 3.27838 h 2.7548 q 0.54774,0 0.95049,-0.39469 0.40275,-0.40275 0.40275,-0.95855 z m 0,4.70411 v -0.56385 q 0,-0.56385 -0.40275,-0.9666 -0.3947,-0.40274 -0.95049,-0.40274 h -2.73869 v 3.28643 h 2.73869 q 0.54774,0 0.95049,-0.3947 0.40275,-0.40275 0.40275,-0.95854 z"
         style="font-size:16.49659538px"
         id="path10911" />
    </g>
    <path
       transform="matrix(0.832365,0,0,0.832365,-9.6150951,85.39736)"
       style="opacity:1;fill:#f9f9f9;fill-opacity:1;fill-rule:nonzero;stroke:#4d4d4d;stroke-width:1.27288282;stroke-linecap:round;stroke-linejoin:round;stroke-miterlimit:4;stroke-dasharray:none;stroke-dashoffset:0;stroke-opacity:1;paint-order:markers fill stroke;filter:url(#filter1658)"
       d="m 76.500099,223.80104 h 23.45599 v 16.54648 h -23.45599 z"
       id="rect1628" />
    <g
       aria-label="Option
C"
       transform="matrix(0.38751216,0,0,0.38751216,-49.402641,91.869889)"
       style="font-style:normal;font-variant:normal;font-weight:normal;font-stretch:normal;font-size:8px;line-height:1.25;font-family:'OCR A Extended';-inkscape-font-specification:'OCR A Extended, Normal';font-variant-ligatures:normal;font-variant-caps:normal;font-variant-numeric:normal;font-feature-settings:normal;text-align:center;letter-spacing:0px;word-spacing:0px;writing-mode:lr-tb;text-anchor:middle;fill:#000000;fill-opacity:1;stroke:none;filter:url(#filter1658)"
       id="flowRoot1638">
      <path
         d="m 280.89648,470.94133 0.72266,1.47266 q 0.15234,0.30078 0.15234,0.65234 0,0.34375 -0.15234,0.64844 l -0.72266,1.45703 q -0.23046,0.48047 -0.78125,0.48047 -0.26171,0 -0.47265,-0.13672 -0.20703,-0.13672 -0.3125,-0.34375 l -0.72656,-1.45703 q -0.14454,-0.28516 -0.14454,-0.64844 0,-0.36328 0.14454,-0.65234 l 0.72656,-1.47266 q 0.24609,-0.48047 0.78515,-0.48047 0.54688,0 0.78125,0.48047 z m -1,0.32813 -0.67968,1.38281 q -0.0937,0.20703 -0.0937,0.40625 0,0.21484 0.0937,0.41016 l 0.69922,1.39843 q 0.0547,0.12891 0.19921,0.12891 0.125,0 0.19141,-0.12891 l 0.70313,-1.39843 q 0.0976,-0.20703 0.0976,-0.41016 0,-0.21484 -0.0976,-0.40625 l -0.6875,-1.38281 q -0.0664,-0.15235 -0.20704,-0.15235 -0.14062,0 -0.21875,0.15235 z"
         style=""
         id="path10883" />
      <path
         d="m 283.95898,475.27727 v 1.45313 q 0,0.14062 -0.0976,0.23828 -0.0937,0.0976 -0.23047,0.0976 -0.13672,0 -0.23828,-0.0976 -0.0977,-0.0977 -0.0977,-0.23828 v -4.67969 q 0,-0.13281 0.0977,-0.23047 0.0976,-0.0977 0.23828,-0.0977 0.13281,0 0.23047,0.0977 0.0976,0.0977 0.0976,0.23047 v 0.21094 q 0.47657,-0.53125 0.94141,-0.53125 h 0.15234 q 0.34766,0 0.64063,0.25781 l 0.54687,0.47265 q 0.35938,0.3125 0.35938,0.79297 v 1.02344 q 0,0.48438 -0.38672,0.81641 l -0.53516,0.46093 q -0.26562,0.24219 -0.67187,0.24219 h -0.14453 q -0.38281,0 -0.64844,-0.26562 z m 0.92579,-0.14453 h 0.16796 q 0.1211,0 0.25782,-0.12109 l 0.51172,-0.44922 q 0.1289,-0.10157 0.1289,-0.27735 v -1.05859 q 0,-0.15625 -0.14453,-0.27734 l -0.55078,-0.47266 q -0.0937,-0.082 -0.20313,-0.082 h -0.1914 q -0.10938,0 -0.28516,0.17969 l -0.48828,0.48437 q -0.12891,0.12891 -0.12891,0.28906 v 0.83985 q 0,0.15234 0.14454,0.29687 l 0.47265,0.47266 q 0.17578,0.17578 0.3086,0.17578 z"
         style=""
         id="path10885" />
      <path
         d="m 290.42773,475.65227 h -0.65625 q -0.40625,0 -0.69921,-0.28906 -0.29297,-0.28906 -0.29297,-0.69531 v -2.12891 h -0.33594 q -0.13672,0 -0.23438,-0.0937 -0.0937,-0.0937 -0.0937,-0.23438 0,-0.13671 0.0937,-0.23046 0.0977,-0.0977 0.23438,-0.0977 h 0.34375 v -0.80469 q 0,-0.13672 0.0937,-0.23047 0.0977,-0.0976 0.23437,-0.0976 0.12891,0 0.22657,0.0976 0.10156,0.0977 0.10156,0.23047 v 0.80469 h 1.32031 q 0.13281,0 0.23047,0.0977 0.0977,0.0977 0.0977,0.23046 0,0.13672 -0.0977,0.23438 -0.0977,0.0937 -0.23047,0.0937 h -1.32812 v 2.12891 q 0,0.13281 0.0977,0.23046 0.10157,0.0977 0.23828,0.0977 h 0.64063 q 0.26172,0 0.34766,-0.28125 0.0859,-0.28516 0.33203,-0.28516 0.14453,0 0.23437,0.0977 0.0937,0.0937 0.0937,0.23828 0,0.29688 -0.28125,0.59375 -0.27734,0.29297 -0.71094,0.29297 z"
         style=""
         id="path10887" />
      <path
         d="m 294.26367,470.1718 h 0.34375 q 0.13672,0 0.23047,0.0977 0.0977,0.0937 0.0977,0.23047 v 0.28125 q 0,0.13672 -0.0977,0.23828 -0.0937,0.0977 -0.23047,0.0977 h -0.35156 q -0.14063,0 -0.23828,-0.10156 -0.0937,-0.10156 -0.0899,-0.22656 l 0.008,-0.28906 q 0,-0.13672 0.0937,-0.23047 0.0977,-0.0977 0.23437,-0.0977 z m 1.33594,5.47266 h -2 q -0.13672,0 -0.23438,-0.0937 -0.0937,-0.0977 -0.0937,-0.23438 0,-0.13281 0.0937,-0.23047 0.0977,-0.0977 0.23438,-0.0977 h 0.67187 v -2.44922 h -0.66406 q -0.13672,0 -0.23437,-0.0977 -0.0937,-0.0976 -0.0937,-0.23047 0,-0.13671 0.0937,-0.23437 0.0977,-0.10156 0.23437,-0.10156 h 1 q 0.13672,0 0.23047,0.10156 0.0977,0.0977 0.0977,0.23437 v 2.77735 h 0.65625 q 0.13672,0 0.23437,0.0977 0.10156,0.0937 0.10156,0.23047 0,0.13672 -0.0976,0.23438 -0.0977,0.0937 -0.23047,0.0937 z"
         style=""
         id="path10889" />
      <path
         d="m 301.08398,473.06633 v 1.38672 q 0,0.44141 -0.41796,0.81641 -0.41407,0.375 -0.85547,0.375 h -0.76953 q -0.44922,0 -0.85938,-0.37891 -0.41016,-0.38281 -0.41016,-0.8125 v -1.38672 q 0,-0.42968 0.39844,-0.80859 0.40235,-0.38281 0.8711,-0.38281 h 0.76953 q 0.4414,-0.008 0.85547,0.36718 0.41796,0.375 0.41796,0.82422 z m -2.64843,0.0274 v 1.32812 q 0,0.17969 0.1289,0.28516 l 0.2461,0.21094 q 0.082,0.0703 0.23047,0.0703 h 0.76171 q 0.16797,0 0.30469,-0.1211 l 0.19922,-0.17578 q 0.12109,-0.0937 0.12109,-0.26172 v -1.32812 q 0,-0.19531 -0.12109,-0.28906 l -0.23047,-0.1836 q -0.11719,-0.0976 -0.27344,-0.0976 h -0.67968 q -0.22266,0 -0.34375,0.10547 l -0.22266,0.1914 q -0.12109,0.10156 -0.12109,0.26563 z"
         style=""
         id="path10891" />
      <path
         d="m 304.1582,472.64446 -0.89453,0.58203 v 2.09766 q 0,0.13281 -0.0976,0.23046 -0.0977,0.0977 -0.23047,0.0977 -0.13282,0 -0.23047,-0.0977 -0.0977,-0.0977 -0.0977,-0.23046 v -3.11329 q 0,-0.13671 0.0937,-0.23437 0.0977,-0.10156 0.23438,-0.10156 0.13281,0 0.23047,0.10156 0.0976,0.0977 0.0976,0.23437 v 0.21875 l 0.59766,-0.36328 q 0.30078,-0.1914 0.67969,-0.1914 h 0.30468 q 0.39063,0 0.67578,0.27734 0.28516,0.27734 0.30079,0.68359 l 0.0898,2.48829 q 0.004,0.13281 -0.0937,0.23046 -0.0977,0.0977 -0.23438,0.0977 -0.1289,0 -0.22656,-0.0859 -0.0976,-0.0898 -0.10156,-0.24218 l -0.0977,-2.44922 q -0.0117,-0.34375 -0.35937,-0.34375 h -0.32031 q -0.14844,0 -0.32032,0.11328 z"
         style=""
         id="path10893" />
      <path
         d="m 292.54533,492.04671 h 2.44066 q 0.28192,0 0.48329,0.20137 0.20943,0.19332 0.20943,0.47525 0,0.28192 -0.20943,0.48329 -0.20137,0.19332 -0.48329,0.19332 h -2.52927 q -0.4833,0 -0.99882,-0.30609 -0.51551,-0.30608 -0.71689,-0.68467 l -1.56266,-3.02062 q -0.31415,-0.65245 -0.31415,-1.33712 0,-0.75717 0.29804,-1.31296 l 1.57877,-2.9884 q 0.22554,-0.41886 0.70079,-0.733 0.47524,-0.3222 0.91826,-0.3222 h 2.67426 q 0.28192,0 0.47524,0.20137 0.20137,0.20138 0.20137,0.47525 0,0.28192 -0.20137,0.49135 -0.19332,0.20137 -0.47524,0.20137 h -2.5776 q -0.3222,0 -0.52357,0.37859 l -1.49823,2.80313 q -0.17721,0.33025 -0.17721,0.78133 0,0.47525 0.19332,0.83772 l 1.43379,2.7548 q 0.20137,0.42692 0.66051,0.42692 z"
         style="font-size:16.49659538px"
         id="path10895" />
    </g>
    <path
       style="fill:#666666;stroke:#f9f9f9;stroke-width:0.37921771;stroke-linecap:butt;stroke-linejoin:miter;stroke-miterlimit:4;stroke-dasharray:none;stroke-opacity:1"
       d="m 43.591744,259.44073 c 3.355342,7.96522 3.046704,17.32626 -1.225972,28.1974 h 13.621937 c 0.134173,-15.16578 -3.780968,-25.09128 -9.807799,-32.28399 z"
       id="path838"
       inkscape:connector-curvature="0"
       sodipodi:nodetypes="ccccc" />
    <circle
       style="opacity:1;fill:#666666;fill-opacity:1;fill-rule:nonzero;stroke:#f9f9f9;stroke-width:0.37921771;stroke-linecap:round;stroke-linejoin:round;stroke-miterlimit:10;stroke-dasharray:none;stroke-dashoffset:0;stroke-opacity:1;paint-order:markers fill stroke"
       id="path836"
       cx="39.935711"
       cy="261.66077"
       r="8.9904757" />
    <path
       style="fill:none;stroke:#ffffff;stroke-width:0.75843543;stroke-linecap:round;stroke-linejoin:round;stroke-miterlimit:4;stroke-dasharray:none;stroke-opacity:1"
       d="m 36.484427,267.74566 c 1.648156,-1.12464 4.077285,-2.52937 7.601498,-0.50677"
       id="path840"
       inkscape:connector-curvature="0"
       sodipodi:nodetypes="cc" />
    <path
       transform="matrix(0.832365,0,0,0.832365,-13.024601,89.614939)"
       style="opacity:1;fill:#f9f9f9;fill-opacity:1;fill-rule:nonzero;stroke:#4d4d4d;stroke-width:1.27288282;stroke-linecap:round;stroke-linejoin:round;stroke-miterlimit:4;stroke-dasharray:none;stroke-dashoffset:0;stroke-opacity:1;paint-order:markers fill stroke;filter:url(#filter1600)"
       d="m 23.58774,223.80104 h 23.45599 v 16.54648 H 23.58774 Z"
       id="rect1347" />
    <g
       aria-label="Option
A"
       transform="matrix(0.38751216,0,0,0.38751216,-96.85444,96.087595)"
       style="font-style:normal;font-variant:normal;font-weight:normal;font-stretch:normal;font-size:8px;line-height:1.25;font-family:'OCR A Extended';-inkscape-font-specification:'OCR A Extended, Normal';font-variant-ligatures:normal;font-variant-caps:normal;font-variant-numeric:normal;font-feature-settings:normal;text-align:center;letter-spacing:0px;word-spacing:0px;writing-mode:lr-tb;text-anchor:middle;fill:#000000;fill-opacity:1;stroke:none;filter:url(#filter1600)"
       id="flowRoot1176-2">
      <path
         d="m 280.89648,470.94133 0.72266,1.47266 q 0.15234,0.30078 0.15234,0.65234 0,0.34375 -0.15234,0.64844 l -0.72266,1.45703 q -0.23046,0.48047 -0.78125,0.48047 -0.26171,0 -0.47265,-0.13672 -0.20703,-0.13672 -0.3125,-0.34375 l -0.72656,-1.45703 q -0.14454,-0.28516 -0.14454,-0.64844 0,-0.36328 0.14454,-0.65234 l 0.72656,-1.47266 q 0.24609,-0.48047 0.78515,-0.48047 0.54688,0 0.78125,0.48047 z m -1,0.32813 -0.67968,1.38281 q -0.0937,0.20703 -0.0937,0.40625 0,0.21484 0.0937,0.41016 l 0.69922,1.39843 q 0.0547,0.12891 0.19921,0.12891 0.125,0 0.19141,-0.12891 l 0.70313,-1.39843 q 0.0976,-0.20703 0.0976,-0.41016 0,-0.21484 -0.0976,-0.40625 l -0.6875,-1.38281 q -0.0664,-0.15235 -0.20704,-0.15235 -0.14062,0 -0.21875,0.15235 z"
         style=""
         id="path10867" />
      <path
         d="m 283.95898,475.27727 v 1.45313 q 0,0.14062 -0.0976,0.23828 -0.0937,0.0976 -0.23047,0.0976 -0.13672,0 -0.23828,-0.0976 -0.0977,-0.0977 -0.0977,-0.23828 v -4.67969 q 0,-0.13281 0.0977,-0.23047 0.0976,-0.0977 0.23828,-0.0977 0.13281,0 0.23047,0.0977 0.0976,0.0977 0.0976,0.23047 v 0.21094 q 0.47657,-0.53125 0.94141,-0.53125 h 0.15234 q 0.34766,0 0.64063,0.25781 l 0.54687,0.47265 q 0.35938,0.3125 0.35938,0.79297 v 1.02344 q 0,0.48438 -0.38672,0.81641 l -0.53516,0.46093 q -0.26562,0.24219 -0.67187,0.24219 h -0.14453 q -0.38281,0 -0.64844,-0.26562 z m 0.92579,-0.14453 h 0.16796 q 0.1211,0 0.25782,-0.12109 l 0.51172,-0.44922 q 0.1289,-0.10157 0.1289,-0.27735 v -1.05859 q 0,-0.15625 -0.14453,-0.27734 l -0.55078,-0.47266 q -0.0937,-0.082 -0.20313,-0.082 h -0.1914 q -0.10938,0 -0.28516,0.17969 l -0.48828,0.48437 q -0.12891,0.12891 -0.12891,0.28906 v 0.83985 q 0,0.15234 0.14454,0.29687 l 0.47265,0.47266 q 0.17578,0.17578 0.3086,0.17578 z"
         style=""
         id="path10869" />
      <path
         d="m 290.42773,475.65227 h -0.65625 q -0.40625,0 -0.69921,-0.28906 -0.29297,-0.28906 -0.29297,-0.69531 v -2.12891 h -0.33594 q -0.13672,0 -0.23438,-0.0937 -0.0937,-0.0937 -0.0937,-0.23438 0,-0.13671 0.0937,-0.23046 0.0977,-0.0977 0.23438,-0.0977 h 0.34375 v -0.80469 q 0,-0.13672 0.0937,-0.23047 0.0977,-0.0976 0.23437,-0.0976 0.12891,0 0.22657,0.0976 0.10156,0.0977 0.10156,0.23047 v 0.80469 h 1.32031 q 0.13281,0 0.23047,0.0977 0.0977,0.0977 0.0977,0.23046 0,0.13672 -0.0977,0.23438 -0.0977,0.0937 -0.23047,0.0937 h -1.32812 v 2.12891 q 0,0.13281 0.0977,0.23046 0.10157,0.0977 0.23828,0.0977 h 0.64063 q 0.26172,0 0.34766,-0.28125 0.0859,-0.28516 0.33203,-0.28516 0.14453,0 0.23437,0.0977 0.0937,0.0937 0.0937,0.23828 0,0.29688 -0.28125,0.59375 -0.27734,0.29297 -0.71094,0.29297 z"
         style=""
         id="path10871" />
      <path
         d="m 294.26367,470.1718 h 0.34375 q 0.13672,0 0.23047,0.0977 0.0977,0.0937 0.0977,0.23047 v 0.28125 q 0,0.13672 -0.0977,0.23828 -0.0937,0.0977 -0.23047,0.0977 h -0.35156 q -0.14063,0 -0.23828,-0.10156 -0.0937,-0.10156 -0.0899,-0.22656 l 0.008,-0.28906 q 0,-0.13672 0.0937,-0.23047 0.0977,-0.0977 0.23437,-0.0977 z m 1.33594,5.47266 h -2 q -0.13672,0 -0.23438,-0.0937 -0.0937,-0.0977 -0.0937,-0.23438 0,-0.13281 0.0937,-0.23047 0.0977,-0.0977 0.23438,-0.0977 h 0.67187 v -2.44922 h -0.66406 q -0.13672,0 -0.23437,-0.0977 -0.0937,-0.0976 -0.0937,-0.23047 0,-0.13671 0.0937,-0.23437 0.0977,-0.10156 0.23437,-0.10156 h 1 q 0.13672,0 0.23047,0.10156 0.0977,0.0977 0.0977,0.23437 v 2.77735 h 0.65625 q 0.13672,0 0.23437,0.0977 0.10156,0.0937 0.10156,0.23047 0,0.13672 -0.0976,0.23438 -0.0977,0.0937 -0.23047,0.0937 z"
         style=""
         id="path10873" />
      <path
         d="m 301.08398,473.06633 v 1.38672 q 0,0.44141 -0.41796,0.81641 -0.41407,0.375 -0.85547,0.375 h -0.76953 q -0.44922,0 -0.85938,-0.37891 -0.41016,-0.38281 -0.41016,-0.8125 v -1.38672 q 0,-0.42968 0.39844,-0.80859 0.40235,-0.38281 0.8711,-0.38281 h 0.76953 q 0.4414,-0.008 0.85547,0.36718 0.41796,0.375 0.41796,0.82422 z m -2.64843,0.0274 v 1.32812 q 0,0.17969 0.1289,0.28516 l 0.2461,0.21094 q 0.082,0.0703 0.23047,0.0703 h 0.76171 q 0.16797,0 0.30469,-0.1211 l 0.19922,-0.17578 q 0.12109,-0.0937 0.12109,-0.26172 v -1.32812 q 0,-0.19531 -0.12109,-0.28906 l -0.23047,-0.1836 q -0.11719,-0.0976 -0.27344,-0.0976 h -0.67968 q -0.22266,0 -0.34375,0.10547 l -0.22266,0.1914 q -0.12109,0.10156 -0.12109,0.26563 z"
         style=""
         id="path10875" />
      <path
         d="m 304.1582,472.64446 -0.89453,0.58203 v 2.09766 q 0,0.13281 -0.0976,0.23046 -0.0977,0.0977 -0.23047,0.0977 -0.13282,0 -0.23047,-0.0977 -0.0977,-0.0977 -0.0977,-0.23046 v -3.11329 q 0,-0.13671 0.0937,-0.23437 0.0977,-0.10156 0.23438,-0.10156 0.13281,0 0.23047,0.10156 0.0976,0.0977 0.0976,0.23437 v 0.21875 l 0.59766,-0.36328 q 0.30078,-0.1914 0.67969,-0.1914 h 0.30468 q 0.39063,0 0.67578,0.27734 0.28516,0.27734 0.30079,0.68359 l 0.0898,2.48829 q 0.004,0.13281 -0.0937,0.23046 -0.0977,0.0977 -0.23438,0.0977 -0.1289,0 -0.22656,-0.0859 -0.0976,-0.0898 -0.10156,-0.24218 l -0.0977,-2.44922 q -0.0117,-0.34375 -0.35937,-0.34375 h -0.32031 q -0.14844,0 -0.32032,0.11328 z"
         style=""
         id="path10877" />
      <path
         d="m 288.87226,492.45751 2.73869,-9.25517 q 0.1611,-0.50746 0.67662,-0.50746 0.49941,0 0.62829,0.42691 l 2.69841,9.40016 q 0.0322,0.10472 0.0322,0.20138 0,0.28192 -0.19332,0.48329 -0.19332,0.19332 -0.44302,0.19332 -0.53163,0 -0.67662,-0.49135 l -0.54774,-1.83654 h -3.08505 l -0.59607,1.96542 q -0.0242,0.12888 -0.20138,0.2497 -0.17721,0.11277 -0.38663,0.11277 -0.29804,0 -0.49136,-0.20137 -0.19332,-0.20138 -0.19332,-0.49135 0,-0.12083 0.0403,-0.24971 z m 3.3992,-6.62925 -1.15992,3.87445 h 2.27956 z"
         style="font-size:16.49659538px"
         id="path10879" />
    </g>
    <path
       transform="matrix(0.832365,0,0,0.832365,-13.024601,89.614939)"
       style="opacity:1;fill:#f9f9f9;fill-opacity:1;fill-rule:nonzero;stroke:#4d4d4d;stroke-width:1.27288282;stroke-linecap:round;stroke-linejoin:round;stroke-miterlimit:4;stroke-dasharray:none;stroke-dashoffset:0;stroke-opacity:1;paint-order:markers fill stroke;filter:url(#filter1600)"
       d="m 50.043919,223.80104 h 23.455989 v 16.54648 H 50.043919 Z"
       id="rect1384" />
    <g
       aria-label="Option
B"
       transform="matrix(0.38751216,0,0,0.38751216,-74.833208,96.087595)"
       style="font-style:normal;font-variant:normal;font-weight:normal;font-stretch:normal;font-size:8px;line-height:1.25;font-family:'OCR A Extended';-inkscape-font-specification:'OCR A Extended, Normal';font-variant-ligatures:normal;font-variant-caps:normal;font-variant-numeric:normal;font-feature-settings:normal;text-align:center;letter-spacing:0px;word-spacing:0px;writing-mode:lr-tb;text-anchor:middle;fill:#000000;fill-opacity:1;stroke:none;filter:url(#filter1600)"
       id="flowRoot1394">
      <path
         d="m 280.89648,470.94133 0.72266,1.47266 q 0.15234,0.30078 0.15234,0.65234 0,0.34375 -0.15234,0.64844 l -0.72266,1.45703 q -0.23046,0.48047 -0.78125,0.48047 -0.26171,0 -0.47265,-0.13672 -0.20703,-0.13672 -0.3125,-0.34375 l -0.72656,-1.45703 q -0.14454,-0.28516 -0.14454,-0.64844 0,-0.36328 0.14454,-0.65234 l 0.72656,-1.47266 q 0.24609,-0.48047 0.78515,-0.48047 0.54688,0 0.78125,0.48047 z m -1,0.32813 -0.67968,1.38281 q -0.0937,0.20703 -0.0937,0.40625 0,0.21484 0.0937,0.41016 l 0.69922,1.39843 q 0.0547,0.12891 0.19921,0.12891 0.125,0 0.19141,-0.12891 l 0.70313,-1.39843 q 0.0976,-0.20703 0.0976,-0.41016 0,-0.21484 -0.0976,-0.40625 l -0.6875,-1.38281 q -0.0664,-0.15235 -0.20704,-0.15235 -0.14062,0 -0.21875,0.15235 z"
         style=""
         id="path10851" />
      <path
         d="m 283.95898,475.27727 v 1.45313 q 0,0.14062 -0.0976,0.23828 -0.0937,0.0976 -0.23047,0.0976 -0.13672,0 -0.23828,-0.0976 -0.0977,-0.0977 -0.0977,-0.23828 v -4.67969 q 0,-0.13281 0.0977,-0.23047 0.0976,-0.0977 0.23828,-0.0977 0.13281,0 0.23047,0.0977 0.0976,0.0977 0.0976,0.23047 v 0.21094 q 0.47657,-0.53125 0.94141,-0.53125 h 0.15234 q 0.34766,0 0.64063,0.25781 l 0.54687,0.47265 q 0.35938,0.3125 0.35938,0.79297 v 1.02344 q 0,0.48438 -0.38672,0.81641 l -0.53516,0.46093 q -0.26562,0.24219 -0.67187,0.24219 h -0.14453 q -0.38281,0 -0.64844,-0.26562 z m 0.92579,-0.14453 h 0.16796 q 0.1211,0 0.25782,-0.12109 l 0.51172,-0.44922 q 0.1289,-0.10157 0.1289,-0.27735 v -1.05859 q 0,-0.15625 -0.14453,-0.27734 l -0.55078,-0.47266 q -0.0937,-0.082 -0.20313,-0.082 h -0.1914 q -0.10938,0 -0.28516,0.17969 l -0.48828,0.48437 q -0.12891,0.12891 -0.12891,0.28906 v 0.83985 q 0,0.15234 0.14454,0.29687 l 0.47265,0.47266 q 0.17578,0.17578 0.3086,0.17578 z"
         style=""
         id="path10853" />
      <path
         d="m 290.42773,475.65227 h -0.65625 q -0.40625,0 -0.69921,-0.28906 -0.29297,-0.28906 -0.29297,-0.69531 v -2.12891 h -0.33594 q -0.13672,0 -0.23438,-0.0937 -0.0937,-0.0937 -0.0937,-0.23438 0,-0.13671 0.0937,-0.23046 0.0977,-0.0977 0.23438,-0.0977 h 0.34375 v -0.80469 q 0,-0.13672 0.0937,-0.23047 0.0977,-0.0976 0.23437,-0.0976 0.12891,0 0.22657,0.0976 0.10156,0.0977 0.10156,0.23047 v 0.80469 h 1.32031 q 0.13281,0 0.23047,0.0977 0.0977,0.0977 0.0977,0.23046 0,0.13672 -0.0977,0.23438 -0.0977,0.0937 -0.23047,0.0937 h -1.32812 v 2.12891 q 0,0.13281 0.0977,0.23046 0.10157,0.0977 0.23828,0.0977 h 0.64063 q 0.26172,0 0.34766,-0.28125 0.0859,-0.28516 0.33203,-0.28516 0.14453,0 0.23437,0.0977 0.0937,0.0937 0.0937,0.23828 0,0.29688 -0.28125,0.59375 -0.27734,0.29297 -0.71094,0.29297 z"
         style=""
         id="path10855" />
      <path
         d="m 294.26367,470.1718 h 0.34375 q 0.13672,0 0.23047,0.0977 0.0977,0.0937 0.0977,0.23047 v 0.28125 q 0,0.13672 -0.0977,0.23828 -0.0937,0.0977 -0.23047,0.0977 h -0.35156 q -0.14063,0 -0.23828,-0.10156 -0.0937,-0.10156 -0.0899,-0.22656 l 0.008,-0.28906 q 0,-0.13672 0.0937,-0.23047 0.0977,-0.0977 0.23437,-0.0977 z m 1.33594,5.47266 h -2 q -0.13672,0 -0.23438,-0.0937 -0.0937,-0.0977 -0.0937,-0.23438 0,-0.13281 0.0937,-0.23047 0.0977,-0.0977 0.23438,-0.0977 h 0.67187 v -2.44922 h -0.66406 q -0.13672,0 -0.23437,-0.0977 -0.0937,-0.0976 -0.0937,-0.23047 0,-0.13671 0.0937,-0.23437 0.0977,-0.10156 0.23437,-0.10156 h 1 q 0.13672,0 0.23047,0.10156 0.0977,0.0977 0.0977,0.23437 v 2.77735 h 0.65625 q 0.13672,0 0.23437,0.0977 0.10156,0.0937 0.10156,0.23047 0,0.13672 -0.0976,0.23438 -0.0977,0.0937 -0.23047,0.0937 z"
         style=""
         id="path10857" />
      <path
         d="m 301.08398,473.06633 v 1.38672 q 0,0.44141 -0.41796,0.81641 -0.41407,0.375 -0.85547,0.375 h -0.76953 q -0.44922,0 -0.85938,-0.37891 -0.41016,-0.38281 -0.41016,-0.8125 v -1.38672 q 0,-0.42968 0.39844,-0.80859 0.40235,-0.38281 0.8711,-0.38281 h 0.76953 q 0.4414,-0.008 0.85547,0.36718 0.41796,0.375 0.41796,0.82422 z m -2.64843,0.0274 v 1.32812 q 0,0.17969 0.1289,0.28516 l 0.2461,0.21094 q 0.082,0.0703 0.23047,0.0703 h 0.76171 q 0.16797,0 0.30469,-0.1211 l 0.19922,-0.17578 q 0.12109,-0.0937 0.12109,-0.26172 v -1.32812 q 0,-0.19531 -0.12109,-0.28906 l -0.23047,-0.1836 q -0.11719,-0.0976 -0.27344,-0.0976 h -0.67968 q -0.22266,0 -0.34375,0.10547 l -0.22266,0.1914 q -0.12109,0.10156 -0.12109,0.26563 z"
         style=""
         id="path10859" />
      <path
         d="m 304.1582,472.64446 -0.89453,0.58203 v 2.09766 q 0,0.13281 -0.0976,0.23046 -0.0977,0.0977 -0.23047,0.0977 -0.13282,0 -0.23047,-0.0977 -0.0977,-0.0977 -0.0977,-0.23046 v -3.11329 q 0,-0.13671 0.0937,-0.23437 0.0977,-0.10156 0.23438,-0.10156 0.13281,0 0.23047,0.10156 0.0976,0.0977 0.0976,0.23437 v 0.21875 l 0.59766,-0.36328 q 0.30078,-0.1914 0.67969,-0.1914 h 0.30468 q 0.39063,0 0.67578,0.27734 0.28516,0.27734 0.30079,0.68359 l 0.0898,2.48829 q 0.004,0.13281 -0.0937,0.23046 -0.0977,0.0977 -0.23438,0.0977 -0.1289,0 -0.22656,-0.0859 -0.0976,-0.0898 -0.10156,-0.24218 l -0.0977,-2.44922 q -0.0117,-0.34375 -0.35937,-0.34375 h -0.32031 q -0.14844,0 -0.32032,0.11328 z"
         style=""
         id="path10861" />
      <path
         d="m 295.64649,490.08129 v 0.59607 q 0,1.11964 -0.79744,1.92514 -0.78939,0.79744 -1.90903,0.79744 h -4.14026 v -10.70506 h 4.14026 q 1.11964,0 1.90903,0.79744 0.79744,0.79744 0.79744,1.92514 v 0.5719 q 0,1.2002 -0.92632,2.04597 0.92632,0.86188 0.92632,2.04596 z m -1.38545,-4.10804 v -0.55579 q 0,-0.56385 -0.40275,-0.9666 -0.3947,-0.40275 -0.95049,-0.40275 h -2.7548 v 3.27838 h 2.7548 q 0.54774,0 0.95049,-0.39469 0.40275,-0.40275 0.40275,-0.95855 z m 0,4.70411 v -0.56385 q 0,-0.56385 -0.40275,-0.9666 -0.3947,-0.40274 -0.95049,-0.40274 h -2.73869 v 3.28643 h 2.73869 q 0.54774,0 0.95049,-0.3947 0.40275,-0.40275 0.40275,-0.95854 z"
         style="font-size:16.49659538px"
         id="path10863" />
    </g>
    <path
       transform="matrix(0.832365,0,0,0.832365,-13.024601,89.614939)"
       style="opacity:1;fill:#f9f9f9;fill-opacity:1;fill-rule:nonzero;stroke:#4d4d4d;stroke-width:1.27288282;stroke-linecap:round;stroke-linejoin:round;stroke-miterlimit:4;stroke-dasharray:none;stroke-dashoffset:0;stroke-opacity:1;paint-order:markers fill stroke;filter:url(#filter1600)"
       d="m 76.500099,223.80104 h 23.45599 v 16.54648 h -23.45599 z"
       id="rect1396" />
    <g
       aria-label="Option
C"
       transform="matrix(0.38751216,0,0,0.38751216,-52.812017,96.087595)"
       style="font-style:normal;font-variant:normal;font-weight:normal;font-stretch:normal;font-size:8px;line-height:1.25;font-family:'OCR A Extended';-inkscape-font-specification:'OCR A Extended, Normal';font-variant-ligatures:normal;font-variant-caps:normal;font-variant-numeric:normal;font-feature-settings:normal;text-align:center;letter-spacing:0px;word-spacing:0px;writing-mode:lr-tb;text-anchor:middle;fill:#000000;fill-opacity:1;stroke:none;filter:url(#filter1600)"
       id="flowRoot1406">
      <path
         d="m 280.89648,470.94133 0.72266,1.47266 q 0.15234,0.30078 0.15234,0.65234 0,0.34375 -0.15234,0.64844 l -0.72266,1.45703 q -0.23046,0.48047 -0.78125,0.48047 -0.26171,0 -0.47265,-0.13672 -0.20703,-0.13672 -0.3125,-0.34375 l -0.72656,-1.45703 q -0.14454,-0.28516 -0.14454,-0.64844 0,-0.36328 0.14454,-0.65234 l 0.72656,-1.47266 q 0.24609,-0.48047 0.78515,-0.48047 0.54688,0 0.78125,0.48047 z m -1,0.32813 -0.67968,1.38281 q -0.0937,0.20703 -0.0937,0.40625 0,0.21484 0.0937,0.41016 l 0.69922,1.39843 q 0.0547,0.12891 0.19921,0.12891 0.125,0 0.19141,-0.12891 l 0.70313,-1.39843 q 0.0976,-0.20703 0.0976,-0.41016 0,-0.21484 -0.0976,-0.40625 l -0.6875,-1.38281 q -0.0664,-0.15235 -0.20704,-0.15235 -0.14062,0 -0.21875,0.15235 z"
         style=""
         id="path10835" />
      <path
         d="m 283.95898,475.27727 v 1.45313 q 0,0.14062 -0.0976,0.23828 -0.0937,0.0976 -0.23047,0.0976 -0.13672,0 -0.23828,-0.0976 -0.0977,-0.0977 -0.0977,-0.23828 v -4.67969 q 0,-0.13281 0.0977,-0.23047 0.0976,-0.0977 0.23828,-0.0977 0.13281,0 0.23047,0.0977 0.0976,0.0977 0.0976,0.23047 v 0.21094 q 0.47657,-0.53125 0.94141,-0.53125 h 0.15234 q 0.34766,0 0.64063,0.25781 l 0.54687,0.47265 q 0.35938,0.3125 0.35938,0.79297 v 1.02344 q 0,0.48438 -0.38672,0.81641 l -0.53516,0.46093 q -0.26562,0.24219 -0.67187,0.24219 h -0.14453 q -0.38281,0 -0.64844,-0.26562 z m 0.92579,-0.14453 h 0.16796 q 0.1211,0 0.25782,-0.12109 l 0.51172,-0.44922 q 0.1289,-0.10157 0.1289,-0.27735 v -1.05859 q 0,-0.15625 -0.14453,-0.27734 l -0.55078,-0.47266 q -0.0937,-0.082 -0.20313,-0.082 h -0.1914 q -0.10938,0 -0.28516,0.17969 l -0.48828,0.48437 q -0.12891,0.12891 -0.12891,0.28906 v 0.83985 q 0,0.15234 0.14454,0.29687 l 0.47265,0.47266 q 0.17578,0.17578 0.3086,0.17578 z"
         style=""
         id="path10837" />
      <path
         d="m 290.42773,475.65227 h -0.65625 q -0.40625,0 -0.69921,-0.28906 -0.29297,-0.28906 -0.29297,-0.69531 v -2.12891 h -0.33594 q -0.13672,0 -0.23438,-0.0937 -0.0937,-0.0937 -0.0937,-0.23438 0,-0.13671 0.0937,-0.23046 0.0977,-0.0977 0.23438,-0.0977 h 0.34375 v -0.80469 q 0,-0.13672 0.0937,-0.23047 0.0977,-0.0976 0.23437,-0.0976 0.12891,0 0.22657,0.0976 0.10156,0.0977 0.10156,0.23047 v 0.80469 h 1.32031 q 0.13281,0 0.23047,0.0977 0.0977,0.0977 0.0977,0.23046 0,0.13672 -0.0977,0.23438 -0.0977,0.0937 -0.23047,0.0937 h -1.32812 v 2.12891 q 0,0.13281 0.0977,0.23046 0.10157,0.0977 0.23828,0.0977 h 0.64063 q 0.26172,0 0.34766,-0.28125 0.0859,-0.28516 0.33203,-0.28516 0.14453,0 0.23437,0.0977 0.0937,0.0937 0.0937,0.23828 0,0.29688 -0.28125,0.59375 -0.27734,0.29297 -0.71094,0.29297 z"
         style=""
         id="path10839" />
      <path
         d="m 294.26367,470.1718 h 0.34375 q 0.13672,0 0.23047,0.0977 0.0977,0.0937 0.0977,0.23047 v 0.28125 q 0,0.13672 -0.0977,0.23828 -0.0937,0.0977 -0.23047,0.0977 h -0.35156 q -0.14063,0 -0.23828,-0.10156 -0.0937,-0.10156 -0.0899,-0.22656 l 0.008,-0.28906 q 0,-0.13672 0.0937,-0.23047 0.0977,-0.0977 0.23437,-0.0977 z m 1.33594,5.47266 h -2 q -0.13672,0 -0.23438,-0.0937 -0.0937,-0.0977 -0.0937,-0.23438 0,-0.13281 0.0937,-0.23047 0.0977,-0.0977 0.23438,-0.0977 h 0.67187 v -2.44922 h -0.66406 q -0.13672,0 -0.23437,-0.0977 -0.0937,-0.0976 -0.0937,-0.23047 0,-0.13671 0.0937,-0.23437 0.0977,-0.10156 0.23437,-0.10156 h 1 q 0.13672,0 0.23047,0.10156 0.0977,0.0977 0.0977,0.23437 v 2.77735 h 0.65625 q 0.13672,0 0.23437,0.0977 0.10156,0.0937 0.10156,0.23047 0,0.13672 -0.0976,0.23438 -0.0977,0.0937 -0.23047,0.0937 z"
         style=""
         id="path10841" />
      <path
         d="m 301.08398,473.06633 v 1.38672 q 0,0.44141 -0.41796,0.81641 -0.41407,0.375 -0.85547,0.375 h -0.76953 q -0.44922,0 -0.85938,-0.37891 -0.41016,-0.38281 -0.41016,-0.8125 v -1.38672 q 0,-0.42968 0.39844,-0.80859 0.40235,-0.38281 0.8711,-0.38281 h 0.76953 q 0.4414,-0.008 0.85547,0.36718 0.41796,0.375 0.41796,0.82422 z m -2.64843,0.0274 v 1.32812 q 0,0.17969 0.1289,0.28516 l 0.2461,0.21094 q 0.082,0.0703 0.23047,0.0703 h 0.76171 q 0.16797,0 0.30469,-0.1211 l 0.19922,-0.17578 q 0.12109,-0.0937 0.12109,-0.26172 v -1.32812 q 0,-0.19531 -0.12109,-0.28906 l -0.23047,-0.1836 q -0.11719,-0.0976 -0.27344,-0.0976 h -0.67968 q -0.22266,0 -0.34375,0.10547 l -0.22266,0.1914 q -0.12109,0.10156 -0.12109,0.26563 z"
         style=""
         id="path10843" />
      <path
         d="m 304.1582,472.64446 -0.89453,0.58203 v 2.09766 q 0,0.13281 -0.0976,0.23046 -0.0977,0.0977 -0.23047,0.0977 -0.13282,0 -0.23047,-0.0977 -0.0977,-0.0977 -0.0977,-0.23046 v -3.11329 q 0,-0.13671 0.0937,-0.23437 0.0977,-0.10156 0.23438,-0.10156 0.13281,0 0.23047,0.10156 0.0976,0.0977 0.0976,0.23437 v 0.21875 l 0.59766,-0.36328 q 0.30078,-0.1914 0.67969,-0.1914 h 0.30468 q 0.39063,0 0.67578,0.27734 0.28516,0.27734 0.30079,0.68359 l 0.0898,2.48829 q 0.004,0.13281 -0.0937,0.23046 -0.0977,0.0977 -0.23438,0.0977 -0.1289,0 -0.22656,-0.0859 -0.0976,-0.0898 -0.10156,-0.24218 l -0.0977,-2.44922 q -0.0117,-0.34375 -0.35937,-0.34375 h -0.32031 q -0.14844,0 -0.32032,0.11328 z"
         style=""
         id="path10845" />
      <path
         d="m 292.54533,492.04671 h 2.44066 q 0.28192,0 0.48329,0.20137 0.20943,0.19332 0.20943,0.47525 0,0.28192 -0.20943,0.48329 -0.20137,0.19332 -0.48329,0.19332 h -2.52927 q -0.4833,0 -0.99882,-0.30609 -0.51551,-0.30608 -0.71689,-0.68467 l -1.56266,-3.02062 q -0.31415,-0.65245 -0.31415,-1.33712 0,-0.75717 0.29804,-1.31296 l 1.57877,-2.9884 q 0.22554,-0.41886 0.70079,-0.733 0.47524,-0.3222 0.91826,-0.3222 h 2.67426 q 0.28192,0 0.47524,0.20137 0.20137,0.20138 0.20137,0.47525 0,0.28192 -0.20137,0.49135 -0.19332,0.20137 -0.47524,0.20137 h -2.5776 q -0.3222,0 -0.52357,0.37859 l -1.49823,2.80313 q -0.17721,0.33025 -0.17721,0.78133 0,0.47525 0.19332,0.83772 l 1.43379,2.7548 q 0.20137,0.42692 0.66051,0.42692 z"
         style="font-size:16.49659538px"
         id="path10847" />
    </g>
    <g
       aria-label="???"
       transform="matrix(1.0033736,0,0,1.0033736,-252.29805,-227.6968)"
       style="font-style:normal;font-variant:normal;font-weight:normal;font-stretch:normal;font-size:7.99997473px;line-height:1.25;font-family:'Akko Rounded Std';-inkscape-font-specification:'Akko Rounded Std, Normal';font-variant-ligatures:normal;font-variant-caps:normal;font-variant-numeric:normal;font-feature-settings:normal;text-align:center;letter-spacing:0px;word-spacing:0px;writing-mode:lr-tb;text-anchor:middle;fill:#000000;fill-opacity:1;stroke:none"
       id="flowRoot1190-3-0">
      <path
         d="m 287.8055,474.8812 c 0,0.28 0.072,0.392 0.32,0.392 0.248,0 0.32,-0.104 0.32,-0.384 0,-0.416 0.096,-0.504 0.528,-0.752 0.752,-0.432 0.984,-0.808 0.984,-1.504 0,-0.89599 -0.632,-1.10399 -1.552,-1.10399 -0.504,0 -0.81599,0.056 -0.98399,0.16 -0.128,0.08 -0.176,0.176 -0.176,0.304 0,0.144 0.096,0.24 0.304,0.224 0.26399,-0.024 0.48799,-0.048 0.73599,-0.048 0.68,0 0.92,0.144 0.92,0.55199 0,0.496 -0.096,0.608 -0.792,1.024 -0.536,0.32 -0.608,0.536 -0.608,1.136 z m -0.17599,1.65599 c 0,0.408 0.11999,0.512 0.53599,0.512 0.376,0 0.512,-0.104 0.512,-0.568 0,-0.392 -0.088,-0.504 -0.512,-0.504 -0.416,0 -0.53599,0.112 -0.53599,0.56 z"
         style=""
         id="path10931" />
      <path
         d="m 291.23693,474.35723 c 0,0.34767 0.0894,0.48673 0.39733,0.48673 0.30794,0 0.39734,-0.12913 0.39734,-0.4768 0,-0.51654 0.1192,-0.62581 0.65561,-0.93375 0.93374,-0.5364 1.22181,-1.00327 1.22181,-1.86748 0,-1.11255 -0.78474,-1.37082 -1.92708,-1.37082 -0.62581,0 -1.01322,0.0695 -1.22182,0.19867 -0.15893,0.0993 -0.21853,0.21853 -0.21853,0.37747 0,0.1788 0.1192,0.298 0.37747,0.27814 0.3278,-0.0298 0.60594,-0.0596 0.91387,-0.0596 0.84435,0 1.14235,0.1788 1.14235,0.6854 0,0.61588 -0.1192,0.75495 -0.98341,1.27149 -0.66554,0.39733 -0.75494,0.66554 -0.75494,1.41055 z m -0.21854,2.05622 c 0,0.50661 0.149,0.63574 0.66554,0.63574 0.46687,0 0.63574,-0.12913 0.63574,-0.70527 0,-0.48674 -0.10927,-0.62581 -0.63574,-0.62581 -0.51654,0 -0.66554,0.13907 -0.66554,0.69534 z"
         style="font-size:9.93344975px"
         id="path10933" />
      <path
         d="m 295.02091,474.8812 c 0,0.28 0.072,0.392 0.31999,0.392 0.248,0 0.32,-0.104 0.32,-0.384 0,-0.416 0.096,-0.504 0.528,-0.752 0.752,-0.432 0.984,-0.808 0.984,-1.504 0,-0.89599 -0.632,-1.10399 -1.552,-1.10399 -0.50399,0 -0.81599,0.056 -0.98399,0.16 -0.128,0.08 -0.176,0.176 -0.176,0.304 0,0.144 0.096,0.24 0.304,0.224 0.264,-0.024 0.488,-0.048 0.73599,-0.048 0.68,0 0.92,0.144 0.92,0.55199 0,0.496 -0.096,0.608 -0.792,1.024 -0.53599,0.32 -0.60799,0.536 -0.60799,1.136 z m -0.176,1.65599 c 0,0.408 0.12,0.512 0.53599,0.512 0.376,0 0.512,-0.104 0.512,-0.568 0,-0.392 -0.088,-0.504 -0.512,-0.504 -0.41599,0 -0.53599,0.112 -0.53599,0.56 z"
         style=""
         id="path10935" />
    </g>
    <path
       style="opacity:1;fill:#f9f9f9;fill-opacity:1;fill-rule:nonzero;stroke:#4d4d4d;stroke-width:1.0595032;stroke-linecap:round;stroke-linejoin:round;stroke-miterlimit:4;stroke-dasharray:none;stroke-dashoffset:0;stroke-opacity:1;paint-order:markers fill stroke"
       d="M 3.2660801,280.05029 H 22.790025 V 293.823 H 3.2660801 Z"
       id="rect1550" />
    <g
       aria-label="Option
A"
       transform="matrix(0.38751216,0,0,0.38751216,-100.19743,100.23873)"
       style="font-style:normal;font-variant:normal;font-weight:normal;font-stretch:normal;font-size:8px;line-height:1.25;font-family:'OCR A Extended';-inkscape-font-specification:'OCR A Extended, Normal';font-variant-ligatures:normal;font-variant-caps:normal;font-variant-numeric:normal;font-feature-settings:normal;text-align:center;letter-spacing:0px;word-spacing:0px;writing-mode:lr-tb;text-anchor:middle;fill:#000000;fill-opacity:1;stroke:none"
       id="flowRoot1560">
      <path
         d="m 280.89648,470.94133 0.72266,1.47266 q 0.15234,0.30078 0.15234,0.65234 0,0.34375 -0.15234,0.64844 l -0.72266,1.45703 q -0.23046,0.48047 -0.78125,0.48047 -0.26171,0 -0.47265,-0.13672 -0.20703,-0.13672 -0.3125,-0.34375 l -0.72656,-1.45703 q -0.14454,-0.28516 -0.14454,-0.64844 0,-0.36328 0.14454,-0.65234 l 0.72656,-1.47266 q 0.24609,-0.48047 0.78515,-0.48047 0.54688,0 0.78125,0.48047 z m -1,0.32813 -0.67968,1.38281 q -0.0937,0.20703 -0.0937,0.40625 0,0.21484 0.0937,0.41016 l 0.69922,1.39843 q 0.0547,0.12891 0.19921,0.12891 0.125,0 0.19141,-0.12891 l 0.70313,-1.39843 q 0.0976,-0.20703 0.0976,-0.41016 0,-0.21484 -0.0976,-0.40625 l -0.6875,-1.38281 q -0.0664,-0.15235 -0.20704,-0.15235 -0.14062,0 -0.21875,0.15235 z"
         style=""
         id="path10819" />
      <path
         d="m 283.95898,475.27727 v 1.45313 q 0,0.14062 -0.0976,0.23828 -0.0937,0.0976 -0.23047,0.0976 -0.13672,0 -0.23828,-0.0976 -0.0977,-0.0977 -0.0977,-0.23828 v -4.67969 q 0,-0.13281 0.0977,-0.23047 0.0976,-0.0977 0.23828,-0.0977 0.13281,0 0.23047,0.0977 0.0976,0.0977 0.0976,0.23047 v 0.21094 q 0.47657,-0.53125 0.94141,-0.53125 h 0.15234 q 0.34766,0 0.64063,0.25781 l 0.54687,0.47265 q 0.35938,0.3125 0.35938,0.79297 v 1.02344 q 0,0.48438 -0.38672,0.81641 l -0.53516,0.46093 q -0.26562,0.24219 -0.67187,0.24219 h -0.14453 q -0.38281,0 -0.64844,-0.26562 z m 0.92579,-0.14453 h 0.16796 q 0.1211,0 0.25782,-0.12109 l 0.51172,-0.44922 q 0.1289,-0.10157 0.1289,-0.27735 v -1.05859 q 0,-0.15625 -0.14453,-0.27734 l -0.55078,-0.47266 q -0.0937,-0.082 -0.20313,-0.082 h -0.1914 q -0.10938,0 -0.28516,0.17969 l -0.48828,0.48437 q -0.12891,0.12891 -0.12891,0.28906 v 0.83985 q 0,0.15234 0.14454,0.29687 l 0.47265,0.47266 q 0.17578,0.17578 0.3086,0.17578 z"
         style=""
         id="path10821" />
      <path
         d="m 290.42773,475.65227 h -0.65625 q -0.40625,0 -0.69921,-0.28906 -0.29297,-0.28906 -0.29297,-0.69531 v -2.12891 h -0.33594 q -0.13672,0 -0.23438,-0.0937 -0.0937,-0.0937 -0.0937,-0.23438 0,-0.13671 0.0937,-0.23046 0.0977,-0.0977 0.23438,-0.0977 h 0.34375 v -0.80469 q 0,-0.13672 0.0937,-0.23047 0.0977,-0.0976 0.23437,-0.0976 0.12891,0 0.22657,0.0976 0.10156,0.0977 0.10156,0.23047 v 0.80469 h 1.32031 q 0.13281,0 0.23047,0.0977 0.0977,0.0977 0.0977,0.23046 0,0.13672 -0.0977,0.23438 -0.0977,0.0937 -0.23047,0.0937 h -1.32812 v 2.12891 q 0,0.13281 0.0977,0.23046 0.10157,0.0977 0.23828,0.0977 h 0.64063 q 0.26172,0 0.34766,-0.28125 0.0859,-0.28516 0.33203,-0.28516 0.14453,0 0.23437,0.0977 0.0937,0.0937 0.0937,0.23828 0,0.29688 -0.28125,0.59375 -0.27734,0.29297 -0.71094,0.29297 z"
         style=""
         id="path10823" />
      <path
         d="m 294.26367,470.1718 h 0.34375 q 0.13672,0 0.23047,0.0977 0.0977,0.0937 0.0977,0.23047 v 0.28125 q 0,0.13672 -0.0977,0.23828 -0.0937,0.0977 -0.23047,0.0977 h -0.35156 q -0.14063,0 -0.23828,-0.10156 -0.0937,-0.10156 -0.0899,-0.22656 l 0.008,-0.28906 q 0,-0.13672 0.0937,-0.23047 0.0977,-0.0977 0.23437,-0.0977 z m 1.33594,5.47266 h -2 q -0.13672,0 -0.23438,-0.0937 -0.0937,-0.0977 -0.0937,-0.23438 0,-0.13281 0.0937,-0.23047 0.0977,-0.0977 0.23438,-0.0977 h 0.67187 v -2.44922 h -0.66406 q -0.13672,0 -0.23437,-0.0977 -0.0937,-0.0976 -0.0937,-0.23047 0,-0.13671 0.0937,-0.23437 0.0977,-0.10156 0.23437,-0.10156 h 1 q 0.13672,0 0.23047,0.10156 0.0977,0.0977 0.0977,0.23437 v 2.77735 h 0.65625 q 0.13672,0 0.23437,0.0977 0.10156,0.0937 0.10156,0.23047 0,0.13672 -0.0976,0.23438 -0.0977,0.0937 -0.23047,0.0937 z"
         style=""
         id="path10825" />
      <path
         d="m 301.08398,473.06633 v 1.38672 q 0,0.44141 -0.41796,0.81641 -0.41407,0.375 -0.85547,0.375 h -0.76953 q -0.44922,0 -0.85938,-0.37891 -0.41016,-0.38281 -0.41016,-0.8125 v -1.38672 q 0,-0.42968 0.39844,-0.80859 0.40235,-0.38281 0.8711,-0.38281 h 0.76953 q 0.4414,-0.008 0.85547,0.36718 0.41796,0.375 0.41796,0.82422 z m -2.64843,0.0274 v 1.32812 q 0,0.17969 0.1289,0.28516 l 0.2461,0.21094 q 0.082,0.0703 0.23047,0.0703 h 0.76171 q 0.16797,0 0.30469,-0.1211 l 0.19922,-0.17578 q 0.12109,-0.0937 0.12109,-0.26172 v -1.32812 q 0,-0.19531 -0.12109,-0.28906 l -0.23047,-0.1836 q -0.11719,-0.0976 -0.27344,-0.0976 h -0.67968 q -0.22266,0 -0.34375,0.10547 l -0.22266,0.1914 q -0.12109,0.10156 -0.12109,0.26563 z"
         style=""
         id="path10827" />
      <path
         d="m 304.1582,472.64446 -0.89453,0.58203 v 2.09766 q 0,0.13281 -0.0976,0.23046 -0.0977,0.0977 -0.23047,0.0977 -0.13282,0 -0.23047,-0.0977 -0.0977,-0.0977 -0.0977,-0.23046 v -3.11329 q 0,-0.13671 0.0937,-0.23437 0.0977,-0.10156 0.23438,-0.10156 0.13281,0 0.23047,0.10156 0.0976,0.0977 0.0976,0.23437 v 0.21875 l 0.59766,-0.36328 q 0.30078,-0.1914 0.67969,-0.1914 h 0.30468 q 0.39063,0 0.67578,0.27734 0.28516,0.27734 0.30079,0.68359 l 0.0898,2.48829 q 0.004,0.13281 -0.0937,0.23046 -0.0977,0.0977 -0.23438,0.0977 -0.1289,0 -0.22656,-0.0859 -0.0976,-0.0898 -0.10156,-0.24218 l -0.0977,-2.44922 q -0.0117,-0.34375 -0.35937,-0.34375 h -0.32031 q -0.14844,0 -0.32032,0.11328 z"
         style=""
         id="path10829" />
      <path
         d="m 288.87226,492.45751 2.73869,-9.25517 q 0.1611,-0.50746 0.67662,-0.50746 0.49941,0 0.62829,0.42691 l 2.69841,9.40016 q 0.0322,0.10472 0.0322,0.20138 0,0.28192 -0.19332,0.48329 -0.19332,0.19332 -0.44302,0.19332 -0.53163,0 -0.67662,-0.49135 l -0.54774,-1.83654 h -3.08505 l -0.59607,1.96542 q -0.0242,0.12888 -0.20138,0.2497 -0.17721,0.11277 -0.38663,0.11277 -0.29804,0 -0.49136,-0.20137 -0.19332,-0.20138 -0.19332,-0.49135 0,-0.12083 0.0403,-0.24971 z m 3.3992,-6.62925 -1.15992,3.87445 h 2.27956 z"
         style="font-size:16.49659538px"
         id="path10831" />
    </g>
    <path
       style="opacity:1;fill:#f9f9f9;fill-opacity:1;fill-rule:nonzero;stroke:#4d4d4d;stroke-width:1.0595032;stroke-linecap:round;stroke-linejoin:round;stroke-miterlimit:4;stroke-dasharray:none;stroke-dashoffset:0;stroke-opacity:1;paint-order:markers fill stroke"
       d="M 25.287296,280.05029 H 44.811241 V 293.823 H 25.287296 Z"
       id="rect1562" />
    <g
       aria-label="Option
B"
       transform="matrix(0.38751216,0,0,0.38751216,-78.176257,100.23873)"
       style="font-style:normal;font-variant:normal;font-weight:normal;font-stretch:normal;font-size:8px;line-height:1.25;font-family:'OCR A Extended';-inkscape-font-specification:'OCR A Extended, Normal';font-variant-ligatures:normal;font-variant-caps:normal;font-variant-numeric:normal;font-feature-settings:normal;text-align:center;letter-spacing:0px;word-spacing:0px;writing-mode:lr-tb;text-anchor:middle;fill:#000000;fill-opacity:1;stroke:none"
       id="flowRoot1572">
      <path
         d="m 280.89648,470.94133 0.72266,1.47266 q 0.15234,0.30078 0.15234,0.65234 0,0.34375 -0.15234,0.64844 l -0.72266,1.45703 q -0.23046,0.48047 -0.78125,0.48047 -0.26171,0 -0.47265,-0.13672 -0.20703,-0.13672 -0.3125,-0.34375 l -0.72656,-1.45703 q -0.14454,-0.28516 -0.14454,-0.64844 0,-0.36328 0.14454,-0.65234 l 0.72656,-1.47266 q 0.24609,-0.48047 0.78515,-0.48047 0.54688,0 0.78125,0.48047 z m -1,0.32813 -0.67968,1.38281 q -0.0937,0.20703 -0.0937,0.40625 0,0.21484 0.0937,0.41016 l 0.69922,1.39843 q 0.0547,0.12891 0.19921,0.12891 0.125,0 0.19141,-0.12891 l 0.70313,-1.39843 q 0.0976,-0.20703 0.0976,-0.41016 0,-0.21484 -0.0976,-0.40625 l -0.6875,-1.38281 q -0.0664,-0.15235 -0.20704,-0.15235 -0.14062,0 -0.21875,0.15235 z"
         style=""
         id="path10803" />
      <path
         d="m 283.95898,475.27727 v 1.45313 q 0,0.14062 -0.0976,0.23828 -0.0937,0.0976 -0.23047,0.0976 -0.13672,0 -0.23828,-0.0976 -0.0977,-0.0977 -0.0977,-0.23828 v -4.67969 q 0,-0.13281 0.0977,-0.23047 0.0976,-0.0977 0.23828,-0.0977 0.13281,0 0.23047,0.0977 0.0976,0.0977 0.0976,0.23047 v 0.21094 q 0.47657,-0.53125 0.94141,-0.53125 h 0.15234 q 0.34766,0 0.64063,0.25781 l 0.54687,0.47265 q 0.35938,0.3125 0.35938,0.79297 v 1.02344 q 0,0.48438 -0.38672,0.81641 l -0.53516,0.46093 q -0.26562,0.24219 -0.67187,0.24219 h -0.14453 q -0.38281,0 -0.64844,-0.26562 z m 0.92579,-0.14453 h 0.16796 q 0.1211,0 0.25782,-0.12109 l 0.51172,-0.44922 q 0.1289,-0.10157 0.1289,-0.27735 v -1.05859 q 0,-0.15625 -0.14453,-0.27734 l -0.55078,-0.47266 q -0.0937,-0.082 -0.20313,-0.082 h -0.1914 q -0.10938,0 -0.28516,0.17969 l -0.48828,0.48437 q -0.12891,0.12891 -0.12891,0.28906 v 0.83985 q 0,0.15234 0.14454,0.29687 l 0.47265,0.47266 q 0.17578,0.17578 0.3086,0.17578 z"
         style=""
         id="path10805" />
      <path
         d="m 290.42773,475.65227 h -0.65625 q -0.40625,0 -0.69921,-0.28906 -0.29297,-0.28906 -0.29297,-0.69531 v -2.12891 h -0.33594 q -0.13672,0 -0.23438,-0.0937 -0.0937,-0.0937 -0.0937,-0.23438 0,-0.13671 0.0937,-0.23046 0.0977,-0.0977 0.23438,-0.0977 h 0.34375 v -0.80469 q 0,-0.13672 0.0937,-0.23047 0.0977,-0.0976 0.23437,-0.0976 0.12891,0 0.22657,0.0976 0.10156,0.0977 0.10156,0.23047 v 0.80469 h 1.32031 q 0.13281,0 0.23047,0.0977 0.0977,0.0977 0.0977,0.23046 0,0.13672 -0.0977,0.23438 -0.0977,0.0937 -0.23047,0.0937 h -1.32812 v 2.12891 q 0,0.13281 0.0977,0.23046 0.10157,0.0977 0.23828,0.0977 h 0.64063 q 0.26172,0 0.34766,-0.28125 0.0859,-0.28516 0.33203,-0.28516 0.14453,0 0.23437,0.0977 0.0937,0.0937 0.0937,0.23828 0,0.29688 -0.28125,0.59375 -0.27734,0.29297 -0.71094,0.29297 z"
         style=""
         id="path10807" />
      <path
         d="m 294.26367,470.1718 h 0.34375 q 0.13672,0 0.23047,0.0977 0.0977,0.0937 0.0977,0.23047 v 0.28125 q 0,0.13672 -0.0977,0.23828 -0.0937,0.0977 -0.23047,0.0977 h -0.35156 q -0.14063,0 -0.23828,-0.10156 -0.0937,-0.10156 -0.0899,-0.22656 l 0.008,-0.28906 q 0,-0.13672 0.0937,-0.23047 0.0977,-0.0977 0.23437,-0.0977 z m 1.33594,5.47266 h -2 q -0.13672,0 -0.23438,-0.0937 -0.0937,-0.0977 -0.0937,-0.23438 0,-0.13281 0.0937,-0.23047 0.0977,-0.0977 0.23438,-0.0977 h 0.67187 v -2.44922 h -0.66406 q -0.13672,0 -0.23437,-0.0977 -0.0937,-0.0976 -0.0937,-0.23047 0,-0.13671 0.0937,-0.23437 0.0977,-0.10156 0.23437,-0.10156 h 1 q 0.13672,0 0.23047,0.10156 0.0977,0.0977 0.0977,0.23437 v 2.77735 h 0.65625 q 0.13672,0 0.23437,0.0977 0.10156,0.0937 0.10156,0.23047 0,0.13672 -0.0976,0.23438 -0.0977,0.0937 -0.23047,0.0937 z"
         style=""
         id="path10809" />
      <path
         d="m 301.08398,473.06633 v 1.38672 q 0,0.44141 -0.41796,0.81641 -0.41407,0.375 -0.85547,0.375 h -0.76953 q -0.44922,0 -0.85938,-0.37891 -0.41016,-0.38281 -0.41016,-0.8125 v -1.38672 q 0,-0.42968 0.39844,-0.80859 0.40235,-0.38281 0.8711,-0.38281 h 0.76953 q 0.4414,-0.008 0.85547,0.36718 0.41796,0.375 0.41796,0.82422 z m -2.64843,0.0274 v 1.32812 q 0,0.17969 0.1289,0.28516 l 0.2461,0.21094 q 0.082,0.0703 0.23047,0.0703 h 0.76171 q 0.16797,0 0.30469,-0.1211 l 0.19922,-0.17578 q 0.12109,-0.0937 0.12109,-0.26172 v -1.32812 q 0,-0.19531 -0.12109,-0.28906 l -0.23047,-0.1836 q -0.11719,-0.0976 -0.27344,-0.0976 h -0.67968 q -0.22266,0 -0.34375,0.10547 l -0.22266,0.1914 q -0.12109,0.10156 -0.12109,0.26563 z"
         style=""
         id="path10811" />
      <path
         d="m 304.1582,472.64446 -0.89453,0.58203 v 2.09766 q 0,0.13281 -0.0976,0.23046 -0.0977,0.0977 -0.23047,0.0977 -0.13282,0 -0.23047,-0.0977 -0.0977,-0.0977 -0.0977,-0.23046 v -3.11329 q 0,-0.13671 0.0937,-0.23437 0.0977,-0.10156 0.23438,-0.10156 0.13281,0 0.23047,0.10156 0.0976,0.0977 0.0976,0.23437 v 0.21875 l 0.59766,-0.36328 q 0.30078,-0.1914 0.67969,-0.1914 h 0.30468 q 0.39063,0 0.67578,0.27734 0.28516,0.27734 0.30079,0.68359 l 0.0898,2.48829 q 0.004,0.13281 -0.0937,0.23046 -0.0977,0.0977 -0.23438,0.0977 -0.1289,0 -0.22656,-0.0859 -0.0976,-0.0898 -0.10156,-0.24218 l -0.0977,-2.44922 q -0.0117,-0.34375 -0.35937,-0.34375 h -0.32031 q -0.14844,0 -0.32032,0.11328 z"
         style=""
         id="path10813" />
      <path
         d="m 295.64649,490.08129 v 0.59607 q 0,1.11964 -0.79744,1.92514 -0.78939,0.79744 -1.90903,0.79744 h -4.14026 v -10.70506 h 4.14026 q 1.11964,0 1.90903,0.79744 0.79744,0.79744 0.79744,1.92514 v 0.5719 q 0,1.2002 -0.92632,2.04597 0.92632,0.86188 0.92632,2.04596 z m -1.38545,-4.10804 v -0.55579 q 0,-0.56385 -0.40275,-0.9666 -0.3947,-0.40275 -0.95049,-0.40275 h -2.7548 v 3.27838 h 2.7548 q 0.54774,0 0.95049,-0.39469 0.40275,-0.40275 0.40275,-0.95855 z m 0,4.70411 v -0.56385 q 0,-0.56385 -0.40275,-0.9666 -0.3947,-0.40274 -0.95049,-0.40274 h -2.73869 v 3.28643 h 2.73869 q 0.54774,0 0.95049,-0.3947 0.40275,-0.40275 0.40275,-0.95854 z"
         style="font-size:16.49659538px"
         id="path10815" />
    </g>
    <path
       style="opacity:1;fill:#f9f9f9;fill-opacity:1;fill-rule:nonzero;stroke:#4d4d4d;stroke-width:1.0595032;stroke-linecap:round;stroke-linejoin:round;stroke-miterlimit:4;stroke-dasharray:none;stroke-dashoffset:0;stroke-opacity:1;paint-order:markers fill stroke"
       d="M 47.308514,280.05029 H 66.832458 V 293.823 H 47.308514 Z"
       id="rect1574" />
    <g
       aria-label="Option
C"
       transform="matrix(0.38751216,0,0,0.38751216,-56.155069,100.23873)"
       style="font-style:normal;font-variant:normal;font-weight:normal;font-stretch:normal;font-size:8px;line-height:1.25;font-family:'OCR A Extended';-inkscape-font-specification:'OCR A Extended, Normal';font-variant-ligatures:normal;font-variant-caps:normal;font-variant-numeric:normal;font-feature-settings:normal;text-align:center;letter-spacing:0px;word-spacing:0px;writing-mode:lr-tb;text-anchor:middle;fill:#000000;fill-opacity:1;stroke:none"
       id="flowRoot1584">
      <path
         d="m 280.89648,470.94133 0.72266,1.47266 q 0.15234,0.30078 0.15234,0.65234 0,0.34375 -0.15234,0.64844 l -0.72266,1.45703 q -0.23046,0.48047 -0.78125,0.48047 -0.26171,0 -0.47265,-0.13672 -0.20703,-0.13672 -0.3125,-0.34375 l -0.72656,-1.45703 q -0.14454,-0.28516 -0.14454,-0.64844 0,-0.36328 0.14454,-0.65234 l 0.72656,-1.47266 q 0.24609,-0.48047 0.78515,-0.48047 0.54688,0 0.78125,0.48047 z m -1,0.32813 -0.67968,1.38281 q -0.0937,0.20703 -0.0937,0.40625 0,0.21484 0.0937,0.41016 l 0.69922,1.39843 q 0.0547,0.12891 0.19921,0.12891 0.125,0 0.19141,-0.12891 l 0.70313,-1.39843 q 0.0976,-0.20703 0.0976,-0.41016 0,-0.21484 -0.0976,-0.40625 l -0.6875,-1.38281 q -0.0664,-0.15235 -0.20704,-0.15235 -0.14062,0 -0.21875,0.15235 z"
         style=""
         id="path10787" />
      <path
         d="m 283.95898,475.27727 v 1.45313 q 0,0.14062 -0.0976,0.23828 -0.0937,0.0976 -0.23047,0.0976 -0.13672,0 -0.23828,-0.0976 -0.0977,-0.0977 -0.0977,-0.23828 v -4.67969 q 0,-0.13281 0.0977,-0.23047 0.0976,-0.0977 0.23828,-0.0977 0.13281,0 0.23047,0.0977 0.0976,0.0977 0.0976,0.23047 v 0.21094 q 0.47657,-0.53125 0.94141,-0.53125 h 0.15234 q 0.34766,0 0.64063,0.25781 l 0.54687,0.47265 q 0.35938,0.3125 0.35938,0.79297 v 1.02344 q 0,0.48438 -0.38672,0.81641 l -0.53516,0.46093 q -0.26562,0.24219 -0.67187,0.24219 h -0.14453 q -0.38281,0 -0.64844,-0.26562 z m 0.92579,-0.14453 h 0.16796 q 0.1211,0 0.25782,-0.12109 l 0.51172,-0.44922 q 0.1289,-0.10157 0.1289,-0.27735 v -1.05859 q 0,-0.15625 -0.14453,-0.27734 l -0.55078,-0.47266 q -0.0937,-0.082 -0.20313,-0.082 h -0.1914 q -0.10938,0 -0.28516,0.17969 l -0.48828,0.48437 q -0.12891,0.12891 -0.12891,0.28906 v 0.83985 q 0,0.15234 0.14454,0.29687 l 0.47265,0.47266 q 0.17578,0.17578 0.3086,0.17578 z"
         style=""
         id="path10789" />
      <path
         d="m 290.42773,475.65227 h -0.65625 q -0.40625,0 -0.69921,-0.28906 -0.29297,-0.28906 -0.29297,-0.69531 v -2.12891 h -0.33594 q -0.13672,0 -0.23438,-0.0937 -0.0937,-0.0937 -0.0937,-0.23438 0,-0.13671 0.0937,-0.23046 0.0977,-0.0977 0.23438,-0.0977 h 0.34375 v -0.80469 q 0,-0.13672 0.0937,-0.23047 0.0977,-0.0976 0.23437,-0.0976 0.12891,0 0.22657,0.0976 0.10156,0.0977 0.10156,0.23047 v 0.80469 h 1.32031 q 0.13281,0 0.23047,0.0977 0.0977,0.0977 0.0977,0.23046 0,0.13672 -0.0977,0.23438 -0.0977,0.0937 -0.23047,0.0937 h -1.32812 v 2.12891 q 0,0.13281 0.0977,0.23046 0.10157,0.0977 0.23828,0.0977 h 0.64063 q 0.26172,0 0.34766,-0.28125 0.0859,-0.28516 0.33203,-0.28516 0.14453,0 0.23437,0.0977 0.0937,0.0937 0.0937,0.23828 0,0.29688 -0.28125,0.59375 -0.27734,0.29297 -0.71094,0.29297 z"
         style=""
         id="path10791" />
      <path
         d="m 294.26367,470.1718 h 0.34375 q 0.13672,0 0.23047,0.0977 0.0977,0.0937 0.0977,0.23047 v 0.28125 q 0,0.13672 -0.0977,0.23828 -0.0937,0.0977 -0.23047,0.0977 h -0.35156 q -0.14063,0 -0.23828,-0.10156 -0.0937,-0.10156 -0.0899,-0.22656 l 0.008,-0.28906 q 0,-0.13672 0.0937,-0.23047 0.0977,-0.0977 0.23437,-0.0977 z m 1.33594,5.47266 h -2 q -0.13672,0 -0.23438,-0.0937 -0.0937,-0.0977 -0.0937,-0.23438 0,-0.13281 0.0937,-0.23047 0.0977,-0.0977 0.23438,-0.0977 h 0.67187 v -2.44922 h -0.66406 q -0.13672,0 -0.23437,-0.0977 -0.0937,-0.0976 -0.0937,-0.23047 0,-0.13671 0.0937,-0.23437 0.0977,-0.10156 0.23437,-0.10156 h 1 q 0.13672,0 0.23047,0.10156 0.0977,0.0977 0.0977,0.23437 v 2.77735 h 0.65625 q 0.13672,0 0.23437,0.0977 0.10156,0.0937 0.10156,0.23047 0,0.13672 -0.0976,0.23438 -0.0977,0.0937 -0.23047,0.0937 z"
         style=""
         id="path10793" />
      <path
         d="m 301.08398,473.06633 v 1.38672 q 0,0.44141 -0.41796,0.81641 -0.41407,0.375 -0.85547,0.375 h -0.76953 q -0.44922,0 -0.85938,-0.37891 -0.41016,-0.38281 -0.41016,-0.8125 v -1.38672 q 0,-0.42968 0.39844,-0.80859 0.40235,-0.38281 0.8711,-0.38281 h 0.76953 q 0.4414,-0.008 0.85547,0.36718 0.41796,0.375 0.41796,0.82422 z m -2.64843,0.0274 v 1.32812 q 0,0.17969 0.1289,0.28516 l 0.2461,0.21094 q 0.082,0.0703 0.23047,0.0703 h 0.76171 q 0.16797,0 0.30469,-0.1211 l 0.19922,-0.17578 q 0.12109,-0.0937 0.12109,-0.26172 v -1.32812 q 0,-0.19531 -0.12109,-0.28906 l -0.23047,-0.1836 q -0.11719,-0.0976 -0.27344,-0.0976 h -0.67968 q -0.22266,0 -0.34375,0.10547 l -0.22266,0.1914 q -0.12109,0.10156 -0.12109,0.26563 z"
         style=""
         id="path10795" />
      <path
         d="m 304.1582,472.64446 -0.89453,0.58203 v 2.09766 q 0,0.13281 -0.0976,0.23046 -0.0977,0.0977 -0.23047,0.0977 -0.13282,0 -0.23047,-0.0977 -0.0977,-0.0977 -0.0977,-0.23046 v -3.11329 q 0,-0.13671 0.0937,-0.23437 0.0977,-0.10156 0.23438,-0.10156 0.13281,0 0.23047,0.10156 0.0976,0.0977 0.0976,0.23437 v 0.21875 l 0.59766,-0.36328 q 0.30078,-0.1914 0.67969,-0.1914 h 0.30468 q 0.39063,0 0.67578,0.27734 0.28516,0.27734 0.30079,0.68359 l 0.0898,2.48829 q 0.004,0.13281 -0.0937,0.23046 -0.0977,0.0977 -0.23438,0.0977 -0.1289,0 -0.22656,-0.0859 -0.0976,-0.0898 -0.10156,-0.24218 l -0.0977,-2.44922 q -0.0117,-0.34375 -0.35937,-0.34375 h -0.32031 q -0.14844,0 -0.32032,0.11328 z"
         style=""
         id="path10797" />
      <path
         d="m 292.54533,492.04671 h 2.44066 q 0.28192,0 0.48329,0.20137 0.20943,0.19332 0.20943,0.47525 0,0.28192 -0.20943,0.48329 -0.20137,0.19332 -0.48329,0.19332 h -2.52927 q -0.4833,0 -0.99882,-0.30609 -0.51551,-0.30608 -0.71689,-0.68467 l -1.56266,-3.02062 q -0.31415,-0.65245 -0.31415,-1.33712 0,-0.75717 0.29804,-1.31296 l 1.57877,-2.9884 q 0.22554,-0.41886 0.70079,-0.733 0.47524,-0.3222 0.91826,-0.3222 h 2.67426 q 0.28192,0 0.47524,0.20137 0.20137,0.20138 0.20137,0.47525 0,0.28192 -0.20137,0.49135 -0.19332,0.20137 -0.47524,0.20137 h -2.5776 q -0.3222,0 -0.52357,0.37859 l -1.49823,2.80313 q -0.17721,0.33025 -0.17721,0.78133 0,0.47525 0.19332,0.83772 l 1.43379,2.7548 q 0.20137,0.42692 0.66051,0.42692 z"
         style="font-size:16.49659538px"
         id="path10799" />
    </g>
  </g>
</svg>
